<?xml version="1.0" encoding="us-ascii" standalone="no"?><svg xmlns="http://www.w3.org/2000/svg" xmlns:xlink="http://www.w3.org/1999/xlink" contentStyleType="text/css" height="1873px" preserveAspectRatio="none" style="width:2350px;height:1873px;background:#FFFFFF;" version="1.1" viewBox="0 0 2350 1873" width="2350px" zoomAndPan="magnify"><defs/><g><rect fill="#FFFFFF" height="1678.7559" style="stroke:#181818;stroke-width:1.0;" width="10" x="17" y="93.6211"/><rect fill="#FFFFFF" height="1017.1875" style="stroke:#181818;stroke-width:1.0;" width="10" x="322" y="116.9121"/><rect fill="#FFFFFF" height="106.873" style="stroke:#181818;stroke-width:1.0;" width="10" x="322" y="1165.3906"/><rect fill="#FFFFFF" height="31.291" style="stroke:#181818;stroke-width:1.0;" width="10" x="322" y="1334.8457"/><rect fill="#FFFFFF" height="374.9492" style="stroke:#181818;stroke-width:1.0;" width="10" x="322" y="1397.4277"/><rect fill="#FFFFFF" height="446.8223" style="stroke:#181818;stroke-width:1.0;" width="10" x="573" y="655.9863"/><rect fill="#FFFFFF" height="37.291" style="stroke:#181818;stroke-width:1.0;" width="10" x="573" y="1196.6816"/><rect fill="#FFFFFF" height="312.3672" style="stroke:#181818;stroke-width:1.0;" width="10" x="573" y="1428.7188"/><rect fill="#FFFFFF" height="121.873" style="stroke:#181818;stroke-width:1.0;" width="10" x="797" y="689.6074"/><rect fill="#FFFFFF" height="121.873" style="stroke:#181818;stroke-width:1.0;" width="10" x="797" y="842.7715"/><rect fill="#FFFFFF" height="59.291" style="stroke:#181818;stroke-width:1.0;" width="10" x="1018" y="720.8984"/><rect fill="#FFFFFF" height="59.291" style="stroke:#181818;stroke-width:1.0;" width="10" x="1018" y="874.0625"/><rect fill="#FFFFFF" height="14" style="stroke:#181818;stroke-width:1.0;" width="10" x="1343.5" y="752.1895"/><rect fill="#FFFFFF" height="14" style="stroke:#181818;stroke-width:1.0;" width="10" x="1343.5" y="905.3535"/><rect fill="#FFFFFF" height="58.291" style="stroke:#181818;stroke-width:1.0;" width="10" x="1343.5" y="1579.2129"/><rect fill="#FFFFFF" height="75.582" style="stroke:#181818;stroke-width:1.0;" width="10" x="1543" y="995.9355"/><rect fill="#FFFFFF" height="58.291" style="stroke:#181818;stroke-width:1.0;" width="10" x="1543" y="1668.7949"/><rect fill="#FFFFFF" height="119.873" style="stroke:#181818;stroke-width:1.0;" width="10" x="1937" y="148.2031"/><rect fill="#FFFFFF" height="164.1641" style="stroke:#181818;stroke-width:1.0;" width="10" x="2085" y="299.3672"/><rect fill="#FFFFFF" height="119.873" style="stroke:#181818;stroke-width:1.0;" width="10" x="2213" y="494.8223"/><line style="stroke:#181818;stroke-width:0.5;stroke-dasharray:5.0,5.0;" x1="22" x2="22" y1="83.6211" y2="1790.377"/><line style="stroke:#181818;stroke-width:0.5;stroke-dasharray:5.0,5.0;" x1="326.5" x2="326.5" y1="83.6211" y2="1790.377"/><line style="stroke:#181818;stroke-width:0.5;stroke-dasharray:5.0,5.0;" x1="577.5" x2="577.5" y1="654.5059" y2="1790.377"/><line style="stroke:#181818;stroke-width:0.5;stroke-dasharray:5.0,5.0;" x1="801.5" x2="801.5" y1="83.6211" y2="1790.377"/><line style="stroke:#181818;stroke-width:0.5;stroke-dasharray:5.0,5.0;" x1="1022.5" x2="1022.5" y1="83.6211" y2="1790.377"/><line style="stroke:#181818;stroke-width:0.5;stroke-dasharray:5.0,5.0;" x1="1186.5" x2="1186.5" y1="1468.5293" y2="1790.377"/><line style="stroke:#181818;stroke-width:0.5;stroke-dasharray:5.0,5.0;" x1="1348.5" x2="1348.5" y1="83.6211" y2="1790.377"/><line style="stroke:#181818;stroke-width:0.5;stroke-dasharray:5.0,5.0;" x1="1547.5" x2="1547.5" y1="83.6211" y2="1790.377"/><line style="stroke:#181818;stroke-width:0.5;stroke-dasharray:5.0,5.0;" x1="1767.5" x2="1767.5" y1="83.6211" y2="1790.377"/><line style="stroke:#181818;stroke-width:0.5;stroke-dasharray:5.0,5.0;" x1="1941.5" x2="1941.5" y1="83.6211" y2="1790.377"/><line style="stroke:#181818;stroke-width:0.5;stroke-dasharray:5.0,5.0;" x1="2089.5" x2="2089.5" y1="83.6211" y2="1790.377"/><line style="stroke:#181818;stroke-width:0.5;stroke-dasharray:5.0,5.0;" x1="2217.5" x2="2217.5" y1="83.6211" y2="1790.377"/><text fill="#000000" font-family="sans-serif" font-size="14" lengthAdjust="spacing" textLength="28" x="5" y="80.1074">user</text><ellipse cx="22" cy="13.5" fill="#E3E3E3" rx="8" ry="8" style="stroke:#181818;stroke-width:0.5;"/><path d="M22,21.5 L22,48.5 M9,29.5 L35,29.5 M22,48.5 L9,63.5 M22,48.5 L35,63.5 " fill="none" style="stroke:#181818;stroke-width:0.5;"/><text fill="#000000" font-family="sans-serif" font-size="14" lengthAdjust="spacing" textLength="28" x="5" y="1804.4844">user</text><ellipse cx="22" cy="1816.498" fill="#E3E3E3" rx="8" ry="8" style="stroke:#181818;stroke-width:0.5;"/><path d="M22,1824.498 L22,1851.498 M9,1832.498 L35,1832.498 M22,1851.498 L9,1866.498 M22,1851.498 L35,1866.498 " fill="none" style="stroke:#181818;stroke-width:0.5;"/><rect fill="#E3E3E3" height="32.6211" rx="2.5" ry="2.5" style="stroke:#181818;stroke-width:0.5;" width="205" x="224.5" y="50"/><text fill="#000000" font-family="sans-serif" font-size="14" lengthAdjust="spacing" textLength="191" x="231.5" y="72.1074">UpdatePostitUI &#171;presentation&#187;</text><rect fill="#E3E3E3" height="32.6211" rx="2.5" ry="2.5" style="stroke:#181818;stroke-width:0.5;" width="205" x="224.5" y="1789.377"/><text fill="#000000" font-family="sans-serif" font-size="14" lengthAdjust="spacing" textLength="191" x="231.5" y="1811.4844">UpdatePostitUI &#171;presentation&#187;</text><rect fill="#E3E3E3" height="32.6211" rx="2.5" ry="2.5" style="stroke:#181818;stroke-width:0.5;" width="199" x="478.5" y="1789.377"/><text fill="#000000" font-family="sans-serif" font-size="14" lengthAdjust="spacing" textLength="185" x="485.5" y="1811.4844">PostitController &#171;application&#187;</text><rect fill="#E3E3E3" height="32.6211" rx="2.5" ry="2.5" style="stroke:#181818;stroke-width:0.5;" width="229" x="687.5" y="50"/><text fill="#000000" font-family="sans-serif" font-size="14" lengthAdjust="spacing" textLength="215" x="694.5" y="72.1074">PersistenceContext &#171;persistence&#187;</text><rect fill="#E3E3E3" height="32.6211" rx="2.5" ry="2.5" style="stroke:#181818;stroke-width:0.5;" width="229" x="687.5" y="1789.377"/><text fill="#000000" font-family="sans-serif" font-size="14" lengthAdjust="spacing" textLength="215" x="694.5" y="1811.4844">PersistenceContext &#171;persistence&#187;</text><rect fill="#E3E3E3" height="32.6211" rx="2.5" ry="2.5" style="stroke:#181818;stroke-width:0.5;" width="193" x="926.5" y="50"/><text fill="#000000" font-family="sans-serif" font-size="14" lengthAdjust="spacing" textLength="179" x="933.5" y="72.1074">RepositoryFactory &#171;factory&#187;</text><rect fill="#E3E3E3" height="32.6211" rx="2.5" ry="2.5" style="stroke:#181818;stroke-width:0.5;" width="193" x="926.5" y="1789.377"/><text fill="#000000" font-family="sans-serif" font-size="14" lengthAdjust="spacing" textLength="179" x="933.5" y="1811.4844">RepositoryFactory &#171;factory&#187;</text><rect fill="#E3E3E3" height="32.6211" rx="2.5" ry="2.5" style="stroke:#181818;stroke-width:0.5;" width="115" x="1129.5" y="1789.377"/><text fill="#000000" font-family="sans-serif" font-size="14" lengthAdjust="spacing" textLength="101" x="1136.5" y="1811.4844">Postit &#171;domain&#187;</text><text fill="#000000" font-family="sans-serif" font-size="14" lengthAdjust="spacing" textLength="182" x="1254.5" y="80.1074">PostitRepository&#171;repository&#187;</text><path d="M1330.5,29 C1330.5,19 1348.5,19 1348.5,19 C1348.5,19 1366.5,19 1366.5,29 L1366.5,55 C1366.5,65 1348.5,65 1348.5,65 C1348.5,65 1330.5,65 1330.5,55 L1330.5,29 " fill="#E3E3E3" style="stroke:#181818;stroke-width:1.5;"/><path d="M1330.5,29 C1330.5,39 1348.5,39 1348.5,39 C1348.5,39 1366.5,39 1366.5,29 " fill="none" style="stroke:#181818;stroke-width:1.5;"/><text fill="#000000" font-family="sans-serif" font-size="14" lengthAdjust="spacing" textLength="182" x="1254.5" y="1804.4844">PostitRepository&#171;repository&#187;</text><path d="M1330.5,1817.998 C1330.5,1807.998 1348.5,1807.998 1348.5,1807.998 C1348.5,1807.998 1366.5,1807.998 1366.5,1817.998 L1366.5,1843.998 C1366.5,1853.998 1348.5,1853.998 1348.5,1853.998 C1348.5,1853.998 1330.5,1853.998 1330.5,1843.998 L1330.5,1817.998 " fill="#E3E3E3" style="stroke:#181818;stroke-width:1.5;"/><path d="M1330.5,1817.998 C1330.5,1827.998 1348.5,1827.998 1348.5,1827.998 C1348.5,1827.998 1366.5,1827.998 1366.5,1817.998 " fill="none" style="stroke:#181818;stroke-width:1.5;"/><text fill="#000000" font-family="sans-serif" font-size="14" lengthAdjust="spacing" textLength="185" x="1452.5" y="80.1074">BoardRepository&#171;repository&#187;</text><path d="M1530,29 C1530,19 1548,19 1548,19 C1548,19 1566,19 1566,29 L1566,55 C1566,65 1548,65 1548,65 C1548,65 1530,65 1530,55 L1530,29 " fill="#E3E3E3" style="stroke:#181818;stroke-width:1.5;"/><path d="M1530,29 C1530,39 1548,39 1548,39 C1548,39 1566,39 1566,29 " fill="none" style="stroke:#181818;stroke-width:1.5;"/><text fill="#000000" font-family="sans-serif" font-size="14" lengthAdjust="spacing" textLength="185" x="1452.5" y="1804.4844">BoardRepository&#171;repository&#187;</text><path d="M1530,1817.998 C1530,1807.998 1548,1807.998 1548,1807.998 C1548,1807.998 1566,1807.998 1566,1817.998 L1566,1843.998 C1566,1853.998 1548,1853.998 1548,1853.998 C1548,1853.998 1530,1853.998 1530,1843.998 L1530,1817.998 " fill="#E3E3E3" style="stroke:#181818;stroke-width:1.5;"/><path d="M1530,1817.998 C1530,1827.998 1548,1827.998 1548,1827.998 C1548,1827.998 1566,1827.998 1566,1817.998 " fill="none" style="stroke:#181818;stroke-width:1.5;"/><text fill="#000000" font-family="sans-serif" font-size="14" lengthAdjust="spacing" textLength="222" x="1653.5" y="80.1074">SystemUserRepository&#171;repository&#187;</text><path d="M1749.5,29 C1749.5,19 1767.5,19 1767.5,19 C1767.5,19 1785.5,19 1785.5,29 L1785.5,55 C1785.5,65 1767.5,65 1767.5,65 C1767.5,65 1749.5,65 1749.5,55 L1749.5,29 " fill="#E3E3E3" style="stroke:#181818;stroke-width:1.5;"/><path d="M1749.5,29 C1749.5,39 1767.5,39 1767.5,39 C1767.5,39 1785.5,39 1785.5,29 " fill="none" style="stroke:#181818;stroke-width:1.5;"/><text fill="#000000" font-family="sans-serif" font-size="14" lengthAdjust="spacing" textLength="222" x="1653.5" y="1804.4844">SystemUserRepository&#171;repository&#187;</text><path d="M1749.5,1817.998 C1749.5,1807.998 1767.5,1807.998 1767.5,1807.998 C1767.5,1807.998 1785.5,1807.998 1785.5,1817.998 L1785.5,1843.998 C1785.5,1853.998 1767.5,1853.998 1767.5,1853.998 C1767.5,1853.998 1749.5,1853.998 1749.5,1843.998 L1749.5,1817.998 " fill="#E3E3E3" style="stroke:#181818;stroke-width:1.5;"/><path d="M1749.5,1817.998 C1749.5,1827.998 1767.5,1827.998 1767.5,1827.998 C1767.5,1827.998 1785.5,1827.998 1785.5,1817.998 " fill="none" style="stroke:#181818;stroke-width:1.5;"/><rect fill="#E3E3E3" height="32.6211" rx="2.5" ry="2.5" style="stroke:#181818;stroke-width:0.5;" width="101" x="1891.5" y="50"/><text fill="#000000" font-family="sans-serif" font-size="14" lengthAdjust="spacing" textLength="87" x="1898.5" y="72.1074">AuthzRegistry</text><rect fill="#E3E3E3" height="32.6211" rx="2.5" ry="2.5" style="stroke:#181818;stroke-width:0.5;" width="101" x="1891.5" y="1789.377"/><text fill="#000000" font-family="sans-serif" font-size="14" lengthAdjust="spacing" textLength="87" x="1898.5" y="1811.4844">AuthzRegistry</text><rect fill="#E3E3E3" height="32.6211" rx="2.5" ry="2.5" style="stroke:#181818;stroke-width:0.5;" width="143" x="2018.5" y="50"/><text fill="#000000" font-family="sans-serif" font-size="14" lengthAdjust="spacing" textLength="129" x="2025.5" y="72.1074">AuthorizationService</text><rect fill="#E3E3E3" height="32.6211" rx="2.5" ry="2.5" style="stroke:#181818;stroke-width:0.5;" width="143" x="2018.5" y="1789.377"/><text fill="#000000" font-family="sans-serif" font-size="14" lengthAdjust="spacing" textLength="129" x="2025.5" y="1811.4844">AuthorizationService</text><rect fill="#E3E3E3" height="32.6211" rx="2.5" ry="2.5" style="stroke:#181818;stroke-width:0.5;" width="93" x="2171.5" y="50"/><text fill="#000000" font-family="sans-serif" font-size="14" lengthAdjust="spacing" textLength="79" x="2178.5" y="72.1074">UserSession</text><rect fill="#E3E3E3" height="32.6211" rx="2.5" ry="2.5" style="stroke:#181818;stroke-width:0.5;" width="93" x="2171.5" y="1789.377"/><text fill="#000000" font-family="sans-serif" font-size="14" lengthAdjust="spacing" textLength="79" x="2178.5" y="1811.4844">UserSession</text><rect fill="#FFFFFF" height="1678.7559" style="stroke:#181818;stroke-width:1.0;" width="10" x="17" y="93.6211"/><rect fill="#FFFFFF" height="1017.1875" style="stroke:#181818;stroke-width:1.0;" width="10" x="322" y="116.9121"/><rect fill="#FFFFFF" height="106.873" style="stroke:#181818;stroke-width:1.0;" width="10" x="322" y="1165.3906"/><rect fill="#FFFFFF" height="31.291" style="stroke:#181818;stroke-width:1.0;" width="10" x="322" y="1334.8457"/><rect fill="#FFFFFF" height="374.9492" style="stroke:#181818;stroke-width:1.0;" width="10" x="322" y="1397.4277"/><rect fill="#FFFFFF" height="446.8223" style="stroke:#181818;stroke-width:1.0;" width="10" x="573" y="655.9863"/><rect fill="#FFFFFF" height="37.291" style="stroke:#181818;stroke-width:1.0;" width="10" x="573" y="1196.6816"/><rect fill="#FFFFFF" height="312.3672" style="stroke:#181818;stroke-width:1.0;" width="10" x="573" y="1428.7188"/><rect fill="#FFFFFF" height="121.873" style="stroke:#181818;stroke-width:1.0;" width="10" x="797" y="689.6074"/><rect fill="#FFFFFF" height="121.873" style="stroke:#181818;stroke-width:1.0;" width="10" x="797" y="842.7715"/><rect fill="#FFFFFF" height="59.291" style="stroke:#181818;stroke-width:1.0;" width="10" x="1018" y="720.8984"/><rect fill="#FFFFFF" height="59.291" style="stroke:#181818;stroke-width:1.0;" width="10" x="1018" y="874.0625"/><rect fill="#FFFFFF" height="14" style="stroke:#181818;stroke-width:1.0;" width="10" x="1343.5" y="752.1895"/><rect fill="#FFFFFF" height="14" style="stroke:#181818;stroke-width:1.0;" width="10" x="1343.5" y="905.3535"/><rect fill="#FFFFFF" height="58.291" style="stroke:#181818;stroke-width:1.0;" width="10" x="1343.5" y="1579.2129"/><rect fill="#FFFFFF" height="75.582" style="stroke:#181818;stroke-width:1.0;" width="10" x="1543" y="995.9355"/><rect fill="#FFFFFF" height="58.291" style="stroke:#181818;stroke-width:1.0;" width="10" x="1543" y="1668.7949"/><rect fill="#FFFFFF" height="119.873" style="stroke:#181818;stroke-width:1.0;" width="10" x="1937" y="148.2031"/><rect fill="#FFFFFF" height="164.1641" style="stroke:#181818;stroke-width:1.0;" width="10" x="2085" y="299.3672"/><rect fill="#FFFFFF" height="119.873" style="stroke:#181818;stroke-width:1.0;" width="10" x="2213" y="494.8223"/><polygon fill="#181818" points="310,112.9121,320,116.9121,310,120.9121,314,116.9121" style="stroke:#181818;stroke-width:1.0;"/><line style="stroke:#181818;stroke-width:1.0;" x1="27" x2="316" y1="116.9121" y2="116.9121"/><text fill="#000000" font-family="sans-serif" font-size="13" lengthAdjust="spacing" textLength="137" x="34" y="111.6494">asks to update a post-it</text><polygon fill="#181818" points="1925,144.2031,1935,148.2031,1925,152.2031,1929,148.2031" style="stroke:#181818;stroke-width:1.0;"/><line style="stroke:#181818;stroke-width:1.0;" x1="332" x2="1931" y1="148.2031" y2="148.2031"/><text fill="#000000" font-family="sans-serif" font-size="13" lengthAdjust="spacing" textLength="124" x="339" y="142.9404">authorizationService()</text><line style="stroke:#181818;stroke-width:1.0;" x1="1947" x2="1989" y1="179.4941" y2="179.4941"/><line style="stroke:#181818;stroke-width:1.0;" x1="1989" x2="1989" y1="179.4941" y2="192.4941"/><line style="stroke:#181818;stroke-width:1.0;" x1="1948" x2="1989" y1="192.4941" y2="192.4941"/><polygon fill="#181818" points="1958,188.4941,1948,192.4941,1958,196.4941,1954,192.4941" style="stroke:#181818;stroke-width:1.0;"/><text fill="#000000" font-family="sans-serif" font-size="13" lengthAdjust="spacing" textLength="75" x="1954" y="174.2314">getInstance()</text><line style="stroke:#181818;stroke-width:1.0;" x1="1947" x2="1989" y1="223.7852" y2="223.7852"/><line style="stroke:#181818;stroke-width:1.0;" x1="1989" x2="1989" y1="223.7852" y2="236.7852"/><line style="stroke:#181818;stroke-width:1.0;" x1="1948" x2="1989" y1="236.7852" y2="236.7852"/><polygon fill="#181818" points="1958,232.7852,1948,236.7852,1958,240.7852,1954,236.7852" style="stroke:#181818;stroke-width:1.0;"/><text fill="#000000" font-family="sans-serif" font-size="13" lengthAdjust="spacing" textLength="124" x="1954" y="218.5225">authorizationService()</text><polygon fill="#181818" points="343,264.0762,333,268.0762,343,272.0762,339,268.0762" style="stroke:#181818;stroke-width:1.0;"/><line style="stroke:#181818;stroke-width:1.0;stroke-dasharray:2.0,2.0;" x1="337" x2="1941" y1="268.0762" y2="268.0762"/><text fill="#000000" font-family="sans-serif" font-size="13" lengthAdjust="spacing" textLength="32" x="349" y="262.8135">authz</text><polygon fill="#181818" points="2073,295.3672,2083,299.3672,2073,303.3672,2077,299.3672" style="stroke:#181818;stroke-width:1.0;"/><line style="stroke:#181818;stroke-width:1.0;" x1="332" x2="2079" y1="299.3672" y2="299.3672"/><text fill="#000000" font-family="sans-serif" font-size="13" lengthAdjust="spacing" textLength="89" x="339" y="294.1045">authz.session()</text><line style="stroke:#181818;stroke-width:1.0;" x1="2095" x2="2137" y1="330.6582" y2="330.6582"/><line style="stroke:#181818;stroke-width:1.0;" x1="2137" x2="2137" y1="330.6582" y2="343.6582"/><line style="stroke:#181818;stroke-width:1.0;" x1="2096" x2="2137" y1="343.6582" y2="343.6582"/><polygon fill="#181818" points="2106,339.6582,2096,343.6582,2106,347.6582,2102,343.6582" style="stroke:#181818;stroke-width:1.0;"/><text fill="#000000" font-family="sans-serif" font-size="13" lengthAdjust="spacing" textLength="75" x="2102" y="325.3955">getInstance()</text><line style="stroke:#181818;stroke-width:1.0;" x1="2095" x2="2137" y1="374.9492" y2="374.9492"/><line style="stroke:#181818;stroke-width:1.0;" x1="2137" x2="2137" y1="374.9492" y2="387.9492"/><line style="stroke:#181818;stroke-width:1.0;" x1="2096" x2="2137" y1="387.9492" y2="387.9492"/><polygon fill="#181818" points="2106,383.9492,2096,387.9492,2106,391.9492,2102,387.9492" style="stroke:#181818;stroke-width:1.0;"/><text fill="#000000" font-family="sans-serif" font-size="13" lengthAdjust="spacing" textLength="53" x="2102" y="369.6865">session()</text><line style="stroke:#181818;stroke-width:1.0;" x1="2095" x2="2137" y1="419.2402" y2="419.2402"/><line style="stroke:#181818;stroke-width:1.0;" x1="2137" x2="2137" y1="419.2402" y2="432.2402"/><line style="stroke:#181818;stroke-width:1.0;" x1="2096" x2="2137" y1="432.2402" y2="432.2402"/><polygon fill="#181818" points="2106,428.2402,2096,432.2402,2106,436.2402,2102,432.2402" style="stroke:#181818;stroke-width:1.0;"/><text fill="#000000" font-family="sans-serif" font-size="13" lengthAdjust="spacing" textLength="26" x="2102" y="413.9775">get()</text><polygon fill="#181818" points="343,459.5313,333,463.5313,343,467.5313,339,463.5313" style="stroke:#181818;stroke-width:1.0;"/><line style="stroke:#181818;stroke-width:1.0;stroke-dasharray:2.0,2.0;" x1="337" x2="2089" y1="463.5313" y2="463.5313"/><text fill="#000000" font-family="sans-serif" font-size="13" lengthAdjust="spacing" textLength="45" x="349" y="458.2686">session</text><polygon fill="#181818" points="2201,490.8223,2211,494.8223,2201,498.8223,2205,494.8223" style="stroke:#181818;stroke-width:1.0;"/><line style="stroke:#181818;stroke-width:1.0;" x1="332" x2="2207" y1="494.8223" y2="494.8223"/><text fill="#000000" font-family="sans-serif" font-size="13" lengthAdjust="spacing" textLength="162" x="339" y="489.5596">session.authenticatedUser()</text><line style="stroke:#181818;stroke-width:1.0;" x1="2223" x2="2265" y1="526.1133" y2="526.1133"/><line style="stroke:#181818;stroke-width:1.0;" x1="2265" x2="2265" y1="526.1133" y2="539.1133"/><line style="stroke:#181818;stroke-width:1.0;" x1="2224" x2="2265" y1="539.1133" y2="539.1133"/><polygon fill="#181818" points="2234,535.1133,2224,539.1133,2234,543.1133,2230,539.1133" style="stroke:#181818;stroke-width:1.0;"/><text fill="#000000" font-family="sans-serif" font-size="13" lengthAdjust="spacing" textLength="75" x="2230" y="520.8506">getInstance()</text><line style="stroke:#181818;stroke-width:1.0;" x1="2223" x2="2265" y1="570.4043" y2="570.4043"/><line style="stroke:#181818;stroke-width:1.0;" x1="2265" x2="2265" y1="570.4043" y2="583.4043"/><line style="stroke:#181818;stroke-width:1.0;" x1="2224" x2="2265" y1="583.4043" y2="583.4043"/><polygon fill="#181818" points="2234,579.4043,2224,583.4043,2234,587.4043,2230,583.4043" style="stroke:#181818;stroke-width:1.0;"/><text fill="#000000" font-family="sans-serif" font-size="13" lengthAdjust="spacing" textLength="113" x="2230" y="565.1416">authenticatedUser()</text><polygon fill="#181818" points="343,610.6953,333,614.6953,343,618.6953,339,614.6953" style="stroke:#181818;stroke-width:1.0;"/><line style="stroke:#181818;stroke-width:1.0;stroke-dasharray:2.0,2.0;" x1="337" x2="2217" y1="614.6953" y2="614.6953"/><text fill="#000000" font-family="sans-serif" font-size="13" lengthAdjust="spacing" textLength="70" x="349" y="609.4326">systemUser</text><polygon fill="#181818" points="466.5,641.9863,476.5,645.9863,466.5,649.9863,470.5,645.9863" style="stroke:#181818;stroke-width:1.0;"/><line style="stroke:#181818;stroke-width:1.0;" x1="332" x2="472.5" y1="645.9863" y2="645.9863"/><text fill="#000000" font-family="sans-serif" font-size="13" lengthAdjust="spacing" textLength="110" x="339" y="640.7236">board(systemUser)</text><rect fill="#E3E3E3" height="32.6211" rx="2.5" ry="2.5" style="stroke:#181818;stroke-width:0.5;" width="199" x="478.5" y="622.6953"/><text fill="#000000" font-family="sans-serif" font-size="14" lengthAdjust="spacing" textLength="185" x="485.5" y="644.8027">PostitController &#171;application&#187;</text><polygon fill="#181818" points="785,685.6074,795,689.6074,785,693.6074,789,689.6074" style="stroke:#181818;stroke-width:1.0;"/><line style="stroke:#181818;stroke-width:1.0;" x1="583" x2="791" y1="689.6074" y2="689.6074"/><text fill="#000000" font-family="sans-serif" font-size="13" lengthAdjust="spacing" textLength="75" x="590" y="684.3447">repositories()</text><polygon fill="#181818" points="1006,716.8984,1016,720.8984,1006,724.8984,1010,720.8984" style="stroke:#181818;stroke-width:1.0;"/><line style="stroke:#181818;stroke-width:1.0;" x1="807" x2="1012" y1="720.8984" y2="720.8984"/><text fill="#000000" font-family="sans-serif" font-size="13" lengthAdjust="spacing" textLength="36" x="814" y="715.6357">create</text><polygon fill="#181818" points="1331.5,748.1895,1341.5,752.1895,1331.5,756.1895,1335.5,752.1895" style="stroke:#181818;stroke-width:1.0;"/><line style="stroke:#181818;stroke-width:1.0;" x1="1028" x2="1337.5" y1="752.1895" y2="752.1895"/><text fill="#000000" font-family="sans-serif" font-size="13" lengthAdjust="spacing" textLength="36" x="1035" y="746.9268">create</text><polygon fill="#181818" points="1039,762.1895,1029,766.1895,1039,770.1895,1035,766.1895" style="stroke:#181818;stroke-width:1.0;"/><line style="stroke:#181818;stroke-width:1.0;stroke-dasharray:2.0,2.0;" x1="1033" x2="1347.5" y1="766.1895" y2="766.1895"/><polygon fill="#181818" points="818,776.1895,808,780.1895,818,784.1895,814,780.1895" style="stroke:#181818;stroke-width:1.0;"/><line style="stroke:#181818;stroke-width:1.0;stroke-dasharray:2.0,2.0;" x1="812" x2="1022" y1="780.1895" y2="780.1895"/><polygon fill="#181818" points="594,807.4805,584,811.4805,594,815.4805,590,811.4805" style="stroke:#181818;stroke-width:1.0;"/><line style="stroke:#181818;stroke-width:1.0;stroke-dasharray:2.0,2.0;" x1="588" x2="801" y1="811.4805" y2="811.4805"/><text fill="#000000" font-family="sans-serif" font-size="13" lengthAdjust="spacing" textLength="96" x="600" y="806.2178">PostItRepository</text><polygon fill="#181818" points="785,838.7715,795,842.7715,785,846.7715,789,842.7715" style="stroke:#181818;stroke-width:1.0;"/><line style="stroke:#181818;stroke-width:1.0;" x1="583" x2="791" y1="842.7715" y2="842.7715"/><text fill="#000000" font-family="sans-serif" font-size="13" lengthAdjust="spacing" textLength="75" x="590" y="837.5088">repositories()</text><polygon fill="#181818" points="1006,870.0625,1016,874.0625,1006,878.0625,1010,874.0625" style="stroke:#181818;stroke-width:1.0;"/><line style="stroke:#181818;stroke-width:1.0;" x1="807" x2="1012" y1="874.0625" y2="874.0625"/><text fill="#000000" font-family="sans-serif" font-size="13" lengthAdjust="spacing" textLength="36" x="814" y="868.7998">create</text><polygon fill="#181818" points="1331.5,901.3535,1341.5,905.3535,1331.5,909.3535,1335.5,905.3535" style="stroke:#181818;stroke-width:1.0;"/><line style="stroke:#181818;stroke-width:1.0;" x1="1028" x2="1337.5" y1="905.3535" y2="905.3535"/><text fill="#000000" font-family="sans-serif" font-size="13" lengthAdjust="spacing" textLength="36" x="1035" y="900.0908">create</text><polygon fill="#181818" points="1039,915.3535,1029,919.3535,1039,923.3535,1035,919.3535" style="stroke:#181818;stroke-width:1.0;"/><line style="stroke:#181818;stroke-width:1.0;stroke-dasharray:2.0,2.0;" x1="1033" x2="1347.5" y1="919.3535" y2="919.3535"/><polygon fill="#181818" points="818,929.3535,808,933.3535,818,937.3535,814,933.3535" style="stroke:#181818;stroke-width:1.0;"/><line style="stroke:#181818;stroke-width:1.0;stroke-dasharray:2.0,2.0;" x1="812" x2="1022" y1="933.3535" y2="933.3535"/><polygon fill="#181818" points="594,960.6445,584,964.6445,594,968.6445,590,964.6445" style="stroke:#181818;stroke-width:1.0;"/><line style="stroke:#181818;stroke-width:1.0;stroke-dasharray:2.0,2.0;" x1="588" x2="801" y1="964.6445" y2="964.6445"/><text fill="#000000" font-family="sans-serif" font-size="13" lengthAdjust="spacing" textLength="96" x="600" y="959.3818">BoardRepository</text><polygon fill="#181818" points="1531,991.9355,1541,995.9355,1531,999.9355,1535,995.9355" style="stroke:#181818;stroke-width:1.0;"/><line style="stroke:#181818;stroke-width:1.0;" x1="583" x2="1537" y1="995.9355" y2="995.9355"/><text fill="#000000" font-family="sans-serif" font-size="13" lengthAdjust="spacing" textLength="110" x="590" y="990.6729">board(systemUser)</text><line style="stroke:#181818;stroke-width:1.0;" x1="1553" x2="1595" y1="1027.2266" y2="1027.2266"/><line style="stroke:#181818;stroke-width:1.0;" x1="1595" x2="1595" y1="1027.2266" y2="1040.2266"/><line style="stroke:#181818;stroke-width:1.0;" x1="1554" x2="1595" y1="1040.2266" y2="1040.2266"/><polygon fill="#181818" points="1564,1036.2266,1554,1040.2266,1564,1044.2266,1560,1040.2266" style="stroke:#181818;stroke-width:1.0;"/><text fill="#000000" font-family="sans-serif" font-size="13" lengthAdjust="spacing" textLength="173" x="1560" y="1021.9639">getBoardByUser(systemUser)</text><polygon fill="#181818" points="594,1067.5176,584,1071.5176,594,1075.5176,590,1071.5176" style="stroke:#181818;stroke-width:1.0;"/><line style="stroke:#181818;stroke-width:1.0;stroke-dasharray:2.0,2.0;" x1="588" x2="1547" y1="1071.5176" y2="1071.5176"/><text fill="#000000" font-family="sans-serif" font-size="13" lengthAdjust="spacing" textLength="128" x="600" y="1066.2549">List&lt;Board&gt; boardList</text><polygon fill="#181818" points="343,1098.8086,333,1102.8086,343,1106.8086,339,1102.8086" style="stroke:#181818;stroke-width:1.0;"/><line style="stroke:#181818;stroke-width:1.0;stroke-dasharray:2.0,2.0;" x1="337" x2="577" y1="1102.8086" y2="1102.8086"/><text fill="#000000" font-family="sans-serif" font-size="13" lengthAdjust="spacing" textLength="53" x="349" y="1097.5459">boardList</text><polygon fill="#181818" points="38,1130.0996,28,1134.0996,38,1138.0996,34,1134.0996" style="stroke:#181818;stroke-width:1.0;"/><line style="stroke:#181818;stroke-width:1.0;stroke-dasharray:2.0,2.0;" x1="32" x2="326" y1="1134.0996" y2="1134.0996"/><text fill="#000000" font-family="sans-serif" font-size="13" lengthAdjust="spacing" textLength="136" x="44" y="1128.8369">asks to choose a board</text><polygon fill="#181818" points="310,1161.3906,320,1165.3906,310,1169.3906,314,1165.3906" style="stroke:#181818;stroke-width:1.0;"/><line style="stroke:#181818;stroke-width:1.0;" x1="27" x2="316" y1="1165.3906" y2="1165.3906"/><text fill="#000000" font-family="sans-serif" font-size="13" lengthAdjust="spacing" textLength="96" x="34" y="1160.1279">chooses a board</text><polygon fill="#181818" points="561,1192.6816,571,1196.6816,561,1200.6816,565,1196.6816" style="stroke:#181818;stroke-width:1.0;"/><line style="stroke:#181818;stroke-width:1.0;" x1="332" x2="567" y1="1196.6816" y2="1196.6816"/><text fill="#000000" font-family="sans-serif" font-size="13" lengthAdjust="spacing" textLength="32" x="339" y="1191.4189">board</text><line style="stroke:#181818;stroke-width:1.0;" x1="583" x2="625" y1="1232.9727" y2="1232.9727"/><line style="stroke:#181818;stroke-width:1.0;" x1="625" x2="625" y1="1232.9727" y2="1245.9727"/><line style="stroke:#181818;stroke-width:1.0;" x1="578" x2="625" y1="1245.9727" y2="1245.9727"/><polygon fill="#181818" points="588,1241.9727,578,1245.9727,588,1249.9727,584,1245.9727" style="stroke:#181818;stroke-width:1.0;"/><text fill="#000000" font-family="sans-serif" font-size="13" lengthAdjust="spacing" textLength="153" x="590" y="1227.71">findPostitsByBoard(Board)</text><polygon fill="#181818" points="338,1268.2637,328,1272.2637,338,1276.2637,334,1272.2637" style="stroke:#181818;stroke-width:1.0;"/><line style="stroke:#181818;stroke-width:1.0;stroke-dasharray:2.0,2.0;" x1="332" x2="577" y1="1272.2637" y2="1272.2637"/><text fill="#000000" font-family="sans-serif" font-size="13" lengthAdjust="spacing" textLength="39" x="344" y="1267.001">postits</text><polygon fill="#181818" points="38,1299.5547,28,1303.5547,38,1307.5547,34,1303.5547" style="stroke:#181818;stroke-width:1.0;"/><line style="stroke:#181818;stroke-width:1.0;stroke-dasharray:2.0,2.0;" x1="32" x2="326" y1="1303.5547" y2="1303.5547"/><text fill="#000000" font-family="sans-serif" font-size="13" lengthAdjust="spacing" textLength="276" x="44" y="1298.292">shows postits available and asks to choose one</text><polygon fill="#181818" points="310,1330.8457,320,1334.8457,310,1338.8457,314,1334.8457" style="stroke:#181818;stroke-width:1.0;"/><line style="stroke:#181818;stroke-width:1.0;" x1="27" x2="316" y1="1334.8457" y2="1334.8457"/><text fill="#000000" font-family="sans-serif" font-size="13" lengthAdjust="spacing" textLength="96" x="34" y="1329.583">chooses a postit</text><polygon fill="#181818" points="38,1362.1367,28,1366.1367,38,1370.1367,34,1366.1367" style="stroke:#181818;stroke-width:1.0;"/><line style="stroke:#181818;stroke-width:1.0;stroke-dasharray:2.0,2.0;" x1="32" x2="326" y1="1366.1367" y2="1366.1367"/><text fill="#000000" font-family="sans-serif" font-size="13" lengthAdjust="spacing" textLength="137" x="44" y="1360.874">asks data for the post-it</text><polygon fill="#181818" points="310,1393.4277,320,1397.4277,310,1401.4277,314,1397.4277" style="stroke:#181818;stroke-width:1.0;"/><line style="stroke:#181818;stroke-width:1.0;" x1="27" x2="316" y1="1397.4277" y2="1397.4277"/><text fill="#000000" font-family="sans-serif" font-size="13" lengthAdjust="spacing" textLength="156" x="34" y="1392.165">provides data for the post-it</text><polygon fill="#181818" points="561,1424.7188,571,1428.7188,561,1432.7188,565,1428.7188" style="stroke:#181818;stroke-width:1.0;"/><line style="stroke:#181818;stroke-width:1.0;" x1="332" x2="567" y1="1428.7188" y2="1428.7188"/><text fill="#000000" font-family="sans-serif" font-size="13" lengthAdjust="spacing" textLength="222" x="339" y="1423.4561">postitCreator(cell, title, content, board)</text><polygon fill="#181818" points="1117.5,1456.0098,1127.5,1460.0098,1117.5,1464.0098,1121.5,1460.0098" style="stroke:#181818;stroke-width:1.0;"/><line style="stroke:#181818;stroke-width:1.0;" x1="583" x2="1123.5" y1="1460.0098" y2="1460.0098"/><text fill="#000000" font-family="sans-serif" font-size="13" lengthAdjust="spacing" textLength="218" x="590" y="1454.7471">createPostit(cell, title, content, board)</text><rect fill="#E3E3E3" height="32.6211" rx="2.5" ry="2.5" style="stroke:#181818;stroke-width:0.5;" width="115" x="1129.5" y="1436.7188"/><text fill="#000000" font-family="sans-serif" font-size="14" lengthAdjust="spacing" textLength="101" x="1136.5" y="1458.8262">Postit &#171;domain&#187;</text><polygon fill="#181818" points="594,1499.6309,584,1503.6309,594,1507.6309,590,1503.6309" style="stroke:#181818;stroke-width:1.0;"/><line style="stroke:#181818;stroke-width:1.0;stroke-dasharray:2.0,2.0;" x1="588" x2="1186" y1="1503.6309" y2="1503.6309"/><text fill="#000000" font-family="sans-serif" font-size="13" lengthAdjust="spacing" textLength="32" x="600" y="1498.3682">postit</text><line style="stroke:#181818;stroke-width:1.0;" x1="583" x2="625" y1="1534.9219" y2="1534.9219"/><line style="stroke:#181818;stroke-width:1.0;" x1="625" x2="625" y1="1534.9219" y2="1547.9219"/><line style="stroke:#181818;stroke-width:1.0;" x1="584" x2="625" y1="1547.9219" y2="1547.9219"/><polygon fill="#181818" points="594,1543.9219,584,1547.9219,594,1551.9219,590,1547.9219" style="stroke:#181818;stroke-width:1.0;"/><text fill="#000000" font-family="sans-serif" font-size="13" lengthAdjust="spacing" textLength="129" x="590" y="1529.6592">cell.setHasPostIt(true)</text><polygon fill="#181818" points="1331.5,1575.2129,1341.5,1579.2129,1331.5,1583.2129,1335.5,1579.2129" style="stroke:#181818;stroke-width:1.0;"/><line style="stroke:#181818;stroke-width:1.0;" x1="583" x2="1337.5" y1="1579.2129" y2="1579.2129"/><text fill="#000000" font-family="sans-serif" font-size="13" lengthAdjust="spacing" textLength="66" x="590" y="1573.9502">save(postit)</text><line style="stroke:#181818;stroke-width:1.0;" x1="1353.5" x2="1395.5" y1="1610.5039" y2="1610.5039"/><line style="stroke:#181818;stroke-width:1.0;" x1="1395.5" x2="1395.5" y1="1610.5039" y2="1623.5039"/><line style="stroke:#181818;stroke-width:1.0;" x1="1354.5" x2="1395.5" y1="1623.5039" y2="1623.5039"/><polygon fill="#181818" points="1364.5,1619.5039,1354.5,1623.5039,1364.5,1627.5039,1360.5,1623.5039" style="stroke:#181818;stroke-width:1.0;"/><text fill="#000000" font-family="sans-serif" font-size="13" lengthAdjust="spacing" textLength="66" x="1360.5" y="1605.2412">save(postit)</text><polygon fill="#181818" points="594,1633.5039,584,1637.5039,594,1641.5039,590,1637.5039" style="stroke:#181818;stroke-width:1.0;"/><line style="stroke:#181818;stroke-width:1.0;stroke-dasharray:2.0,2.0;" x1="588" x2="1347.5" y1="1637.5039" y2="1637.5039"/><polygon fill="#181818" points="1531,1664.7949,1541,1668.7949,1531,1672.7949,1535,1668.7949" style="stroke:#181818;stroke-width:1.0;"/><line style="stroke:#181818;stroke-width:1.0;" x1="583" x2="1537" y1="1668.7949" y2="1668.7949"/><text fill="#000000" font-family="sans-serif" font-size="13" lengthAdjust="spacing" textLength="66" x="590" y="1663.5322">save(board)</text><line style="stroke:#181818;stroke-width:1.0;" x1="1553" x2="1595" y1="1700.0859" y2="1700.0859"/><line style="stroke:#181818;stroke-width:1.0;" x1="1595" x2="1595" y1="1700.0859" y2="1713.0859"/><line style="stroke:#181818;stroke-width:1.0;" x1="1554" x2="1595" y1="1713.0859" y2="1713.0859"/><polygon fill="#181818" points="1564,1709.0859,1554,1713.0859,1564,1717.0859,1560,1713.0859" style="stroke:#181818;stroke-width:1.0;"/><text fill="#000000" font-family="sans-serif" font-size="13" lengthAdjust="spacing" textLength="66" x="1560" y="1694.8232">save(board)</text><polygon fill="#181818" points="594,1723.0859,584,1727.0859,594,1731.0859,590,1727.0859" style="stroke:#181818;stroke-width:1.0;"/><line style="stroke:#181818;stroke-width:1.0;stroke-dasharray:2.0,2.0;" x1="588" x2="1547" y1="1727.0859" y2="1727.0859"/><polygon fill="#181818" points="343,1737.0859,333,1741.0859,343,1745.0859,339,1741.0859" style="stroke:#181818;stroke-width:1.0;"/><line style="stroke:#181818;stroke-width:1.0;stroke-dasharray:2.0,2.0;" x1="337" x2="577" y1="1741.0859" y2="1741.0859"/><polygon fill="#181818" points="33,1768.377,23,1772.377,33,1776.377,29,1772.377" style="stroke:#181818;stroke-width:1.0;"/><line style="stroke:#181818;stroke-width:1.0;stroke-dasharray:2.0,2.0;" x1="27" x2="326" y1="1772.377" y2="1772.377"/><text fill="#000000" font-family="sans-serif" font-size="13" lengthAdjust="spacing" textLength="147" x="39" y="1767.1143">shows operation success</text><!--SRC=[fLZRRk8m47tFLrXzWggjjAyLGcfGLujKQH6K3t0J0rP37Dc6BltwdR534kVYa3GFgzIPEUEPCnoFLttoDAEI7ibHf28wI75aHCiJ2rJn9QFH9zspZRuaZ4WMQPhkawg1Ej1OVF5qJtOqKIm8NY8j9BaxAIRl25La2oy1s6eUyOoccjnjivXgjX9ASxrTajaiaqonL5FDHJgV6w_5TkawMVE5IBKKIS8akD4iItZaUBsltsfkJ2gkD4iZXhxidyPuvMBkk7fTktvhbWd58PFBRue9NS1jPzzob_Nhgcs7O1UB8-NNBQt-Rju3o9T-KCMkHYNwR2QBzsiIY5nwX8BAsEiGkWwR2wHsnBBtXlaL190JFmCTbgU0m8Dlv76E791dCFrKH0joCgmHIW17Ft9jRGjt9Coiu8EU0F1oqeVlDTj3hQ6000L_2yc_3MKR9iyyOfDfuLLWENx5PtnSn9OGUwQNgO8kTP1lSktOdG-aB1AkEvOnwqYdhKZri5V49yMKWkMk8jNz6djj07S7z5Tk051pp-DsSnD0mK0UrST1erfrAh3nDnQdH7n29a2TK6bOZ2PjR5HSdIrK8HiHkalkTVDjgE5S5gYGXQuQLNEebmQLzVuUO3vGZYObMEq7Kke1Ih7poQ31AiA1tW9MeKcSgVelpG53UMvynGTn00wa3E0YoS2utR20GgrijS07SJ1P1w_Bk4pLYsd07g-Rx3IhyD2DbqDXENemEY5CnN928KSyZvQLywZfL05jfM4OfSCf7atvk1RuKKkCR96HBJEgXGQsr9WMwscvsa3JZz7NWLqT6LhEcefrCstXpJc6UP_aCK7PJPhXnUZpaE0bMbcoDnWTPWPmRjF1XK65Qy_4Lgeu8ZgWgttLK7LpFkH7L6LQZ0v2A9mM3QPFLCpW63GEi7m0VSwHL07LVKeu8sZB-NNDq0VXFRLoa1rFOpl7g_1YM9cOVwTUyVH15mna5ZReBLXhcYKDwY2-r1MDq3Fb2Vs06nnDupf58ctHJ_SAK59W4KTnKEiHlA-G7TmKOPPnhnH3qdRtcKbnvZ6x5Nn8uzZ45oZ_GauYbYGF11OIza0Yl5Uc-i4srtHqT-5DqOnOzf2n7JOm569KXQEBhrf7On2uQ-W_LDc1O8B_3J3r-5cPK_JC9ZQ6D-zsyN6FLZ_MmbL4VwTujAvGQ1Ekbx5ssQo9lHSg7B3nMqHwZCQqQOF8c3IN8Q9EKGHJV_-FhtPL2Fu3]--></g></svg>