<?xml version="1.0" encoding="us-ascii" standalone="no"?><svg xmlns="http://www.w3.org/2000/svg" xmlns:xlink="http://www.w3.org/1999/xlink" contentStyleType="text/css" height="449px" preserveAspectRatio="none" style="width:1606px;height:449px;background:#FFFFFF;" version="1.1" viewBox="0 0 1606 449" width="1606px" zoomAndPan="magnify"><defs/><g><rect fill="#FFFFFF" height="254.6582" style="stroke:#181818;stroke-width:1.0;" width="10" x="29.5" y="93.6211"/><rect fill="#FFFFFF" height="240.3672" style="stroke:#181818;stroke-width:1.0;" width="10" x="286.5" y="116.9121"/><rect fill="#FFFFFF" height="74.9121" style="stroke:#181818;stroke-width:1.0;" width="10" x="479" y="148.2031"/><rect fill="#FFFFFF" height="93.873" style="stroke:#181818;stroke-width:1.0;" width="10" x="479" y="254.4063"/><rect fill="#FFFFFF" height="158.7852" style="stroke:#181818;stroke-width:1.0;" width="10" x="713.5" y="189.4941"/><line style="stroke:#181818;stroke-width:0.5;stroke-dasharray:5.0,5.0;" x1="34" x2="34" y1="83.6211" y2="366.2793"/><line style="stroke:#181818;stroke-width:0.5;stroke-dasharray:5.0,5.0;" x1="291.5" x2="291.5" y1="83.6211" y2="366.2793"/><line style="stroke:#181818;stroke-width:0.5;stroke-dasharray:5.0,5.0;" x1="483.5" x2="483.5" y1="83.6211" y2="366.2793"/><line style="stroke:#181818;stroke-width:0.5;stroke-dasharray:5.0,5.0;" x1="718.5" x2="718.5" y1="188.0137" y2="366.2793"/><line style="stroke:#181818;stroke-width:0.5;stroke-dasharray:5.0,5.0;" x1="964.5" x2="964.5" y1="83.6211" y2="366.2793"/><line style="stroke:#181818;stroke-width:0.5;stroke-dasharray:5.0,5.0;" x1="1185.5" x2="1185.5" y1="83.6211" y2="366.2793"/><line style="stroke:#181818;stroke-width:0.5;stroke-dasharray:5.0,5.0;" x1="1349.5" x2="1349.5" y1="83.6211" y2="366.2793"/><line style="stroke:#181818;stroke-width:0.5;stroke-dasharray:5.0,5.0;" x1="1511.5" x2="1511.5" y1="83.6211" y2="366.2793"/><text fill="#000000" font-family="sans-serif" font-size="14" lengthAdjust="spacing" textLength="53" x="5" y="80.1074">Teacher</text><ellipse cx="34.5" cy="13.5" fill="#E3E3E3" rx="8" ry="8" style="stroke:#181818;stroke-width:0.5;"/><path d="M34.5,21.5 L34.5,48.5 M21.5,29.5 L47.5,29.5 M34.5,48.5 L21.5,63.5 M34.5,48.5 L47.5,63.5 " fill="none" style="stroke:#181818;stroke-width:0.5;"/><text fill="#000000" font-family="sans-serif" font-size="14" lengthAdjust="spacing" textLength="53" x="5" y="380.3867">Teacher</text><ellipse cx="34.5" cy="392.4004" fill="#E3E3E3" rx="8" ry="8" style="stroke:#181818;stroke-width:0.5;"/><path d="M34.5,400.4004 L34.5,427.4004 M21.5,408.4004 L47.5,408.4004 M34.5,427.4004 L21.5,442.4004 M34.5,427.4004 L47.5,442.4004 " fill="none" style="stroke:#181818;stroke-width:0.5;"/><rect fill="#E3E3E3" height="32.6211" rx="2.5" ry="2.5" style="stroke:#181818;stroke-width:0.5;" width="160" x="211.5" y="50"/><text fill="#000000" font-family="sans-serif" font-size="14" lengthAdjust="spacing" textLength="146" x="218.5" y="72.1074">ClassUI &#171;presentation&#187;</text><rect fill="#E3E3E3" height="32.6211" rx="2.5" ry="2.5" style="stroke:#181818;stroke-width:0.5;" width="160" x="211.5" y="365.2793"/><text fill="#000000" font-family="sans-serif" font-size="14" lengthAdjust="spacing" textLength="146" x="218.5" y="387.3867">ClassUI &#171;presentation&#187;</text><rect fill="#E3E3E3" height="32.6211" rx="2.5" ry="2.5" style="stroke:#181818;stroke-width:0.5;" width="205" x="381.5" y="50"/><text fill="#000000" font-family="sans-serif" font-size="14" lengthAdjust="spacing" textLength="191" x="388.5" y="72.1074">UpdateClassUI &#171;presentation&#187;</text><rect fill="#E3E3E3" height="32.6211" rx="2.5" ry="2.5" style="stroke:#181818;stroke-width:0.5;" width="205" x="381.5" y="365.2793"/><text fill="#000000" font-family="sans-serif" font-size="14" lengthAdjust="spacing" textLength="191" x="388.5" y="387.3867">UpdateClassUI &#171;presentation&#187;</text><rect fill="#E3E3E3" height="32.6211" rx="2.5" ry="2.5" style="stroke:#181818;stroke-width:0.5;" width="244" x="596.5" y="365.2793"/><text fill="#000000" font-family="sans-serif" font-size="14" lengthAdjust="spacing" textLength="230" x="603.5" y="387.3867">UpdateClassController &#171;application&#187;</text><rect fill="#E3E3E3" height="32.6211" rx="2.5" ry="2.5" style="stroke:#181818;stroke-width:0.5;" width="229" x="850.5" y="50"/><text fill="#000000" font-family="sans-serif" font-size="14" lengthAdjust="spacing" textLength="215" x="857.5" y="72.1074">PersistenceContext &#171;persistence&#187;</text><rect fill="#E3E3E3" height="32.6211" rx="2.5" ry="2.5" style="stroke:#181818;stroke-width:0.5;" width="229" x="850.5" y="365.2793"/><text fill="#000000" font-family="sans-serif" font-size="14" lengthAdjust="spacing" textLength="215" x="857.5" y="387.3867">PersistenceContext &#171;persistence&#187;</text><rect fill="#E3E3E3" height="32.6211" rx="2.5" ry="2.5" style="stroke:#181818;stroke-width:0.5;" width="193" x="1089.5" y="50"/><text fill="#000000" font-family="sans-serif" font-size="14" lengthAdjust="spacing" textLength="179" x="1096.5" y="72.1074">RepositoryFactory &#171;factory&#187;</text><rect fill="#E3E3E3" height="32.6211" rx="2.5" ry="2.5" style="stroke:#181818;stroke-width:0.5;" width="193" x="1089.5" y="365.2793"/><text fill="#000000" font-family="sans-serif" font-size="14" lengthAdjust="spacing" textLength="179" x="1096.5" y="387.3867">RepositoryFactory &#171;factory&#187;</text><rect fill="#E3E3E3" height="32.6211" rx="2.5" ry="2.5" style="stroke:#181818;stroke-width:0.5;" width="115" x="1292.5" y="50"/><text fill="#000000" font-family="sans-serif" font-size="14" lengthAdjust="spacing" textLength="101" x="1299.5" y="72.1074">Class &#171;domain&#187;</text><rect fill="#E3E3E3" height="32.6211" rx="2.5" ry="2.5" style="stroke:#181818;stroke-width:0.5;" width="115" x="1292.5" y="365.2793"/><text fill="#000000" font-family="sans-serif" font-size="14" lengthAdjust="spacing" textLength="101" x="1299.5" y="387.3867">Class &#171;domain&#187;</text><text fill="#000000" font-family="sans-serif" font-size="14" lengthAdjust="spacing" textLength="182" x="1417.5" y="80.1074">ClassRepository&#171;repository&#187;</text><path d="M1493.5,29 C1493.5,19 1511.5,19 1511.5,19 C1511.5,19 1529.5,19 1529.5,29 L1529.5,55 C1529.5,65 1511.5,65 1511.5,65 C1511.5,65 1493.5,65 1493.5,55 L1493.5,29 " fill="#E3E3E3" style="stroke:#181818;stroke-width:1.5;"/><path d="M1493.5,29 C1493.5,39 1511.5,39 1511.5,39 C1511.5,39 1529.5,39 1529.5,29 " fill="none" style="stroke:#181818;stroke-width:1.5;"/><text fill="#000000" font-family="sans-serif" font-size="14" lengthAdjust="spacing" textLength="182" x="1417.5" y="380.3867">ClassRepository&#171;repository&#187;</text><path d="M1493.5,393.9004 C1493.5,383.9004 1511.5,383.9004 1511.5,383.9004 C1511.5,383.9004 1529.5,383.9004 1529.5,393.9004 L1529.5,419.9004 C1529.5,429.9004 1511.5,429.9004 1511.5,429.9004 C1511.5,429.9004 1493.5,429.9004 1493.5,419.9004 L1493.5,393.9004 " fill="#E3E3E3" style="stroke:#181818;stroke-width:1.5;"/><path d="M1493.5,393.9004 C1493.5,403.9004 1511.5,403.9004 1511.5,403.9004 C1511.5,403.9004 1529.5,403.9004 1529.5,393.9004 " fill="none" style="stroke:#181818;stroke-width:1.5;"/><rect fill="#FFFFFF" height="254.6582" style="stroke:#181818;stroke-width:1.0;" width="10" x="29.5" y="93.6211"/><rect fill="#FFFFFF" height="240.3672" style="stroke:#181818;stroke-width:1.0;" width="10" x="286.5" y="116.9121"/><rect fill="#FFFFFF" height="74.9121" style="stroke:#181818;stroke-width:1.0;" width="10" x="479" y="148.2031"/><rect fill="#FFFFFF" height="93.873" style="stroke:#181818;stroke-width:1.0;" width="10" x="479" y="254.4063"/><rect fill="#FFFFFF" height="158.7852" style="stroke:#181818;stroke-width:1.0;" width="10" x="713.5" y="189.4941"/><polygon fill="#181818" points="274.5,112.9121,284.5,116.9121,274.5,120.9121,278.5,116.9121" style="stroke:#181818;stroke-width:1.0;"/><line style="stroke:#181818;stroke-width:1.0;" x1="39.5" x2="280.5" y1="116.9121" y2="116.9121"/><text fill="#000000" font-family="sans-serif" font-size="13" lengthAdjust="spacing" textLength="228" x="46.5" y="111.6494">asks to update schedule an extra class</text><polygon fill="#181818" points="467,144.2031,477,148.2031,467,152.2031,471,148.2031" style="stroke:#181818;stroke-width:1.0;"/><line style="stroke:#181818;stroke-width:1.0;" x1="296.5" x2="473" y1="148.2031" y2="148.2031"/><text fill="#000000" font-family="sans-serif" font-size="13" lengthAdjust="spacing" textLength="72" x="303.5" y="142.9404">updateClass</text><polygon fill="#181818" points="584.5,175.4941,594.5,179.4941,584.5,183.4941,588.5,179.4941" style="stroke:#181818;stroke-width:1.0;"/><line style="stroke:#181818;stroke-width:1.0;" x1="489" x2="590.5" y1="179.4941" y2="179.4941"/><text fill="#000000" font-family="sans-serif" font-size="13" lengthAdjust="spacing" textLength="39" x="496" y="174.2314">update</text><rect fill="#E3E3E3" height="32.6211" rx="2.5" ry="2.5" style="stroke:#181818;stroke-width:0.5;" width="244" x="596.5" y="156.2031"/><text fill="#000000" font-family="sans-serif" font-size="14" lengthAdjust="spacing" textLength="230" x="603.5" y="178.3105">UpdateClassController &#171;application&#187;</text><polygon fill="#181818" points="50.5,219.1152,40.5,223.1152,50.5,227.1152,46.5,223.1152" style="stroke:#181818;stroke-width:1.0;"/><line style="stroke:#181818;stroke-width:1.0;stroke-dasharray:2.0,2.0;" x1="44.5" x2="483" y1="223.1152" y2="223.1152"/><text fill="#000000" font-family="sans-serif" font-size="13" lengthAdjust="spacing" textLength="110" x="56.5" y="217.8525">asks data for class</text><polygon fill="#181818" points="467,250.4063,477,254.4063,467,258.4063,471,254.4063" style="stroke:#181818;stroke-width:1.0;"/><line style="stroke:#181818;stroke-width:1.0;" x1="39.5" x2="473" y1="254.4063" y2="254.4063"/><text fill="#000000" font-family="sans-serif" font-size="13" lengthAdjust="spacing" textLength="93" x="46.5" y="249.1436">gives class data</text><polygon fill="#181818" points="701.5,281.6973,711.5,285.6973,701.5,289.6973,705.5,285.6973" style="stroke:#181818;stroke-width:1.0;"/><line style="stroke:#181818;stroke-width:1.0;" x1="489" x2="707.5" y1="285.6973" y2="285.6973"/><text fill="#000000" font-family="sans-serif" font-size="13" lengthAdjust="spacing" textLength="72" x="496" y="280.4346">update(data)</text><polygon fill="#181818" points="1499.5,312.9883,1509.5,316.9883,1499.5,320.9883,1503.5,316.9883" style="stroke:#181818;stroke-width:1.0;"/><line style="stroke:#181818;stroke-width:1.0;" x1="723.5" x2="1505.5" y1="316.9883" y2="316.9883"/><text fill="#000000" font-family="sans-serif" font-size="13" lengthAdjust="spacing" textLength="119" x="730.5" y="311.7256">class = update(data)</text><polygon fill="#181818" points="1499.5,344.2793,1509.5,348.2793,1499.5,352.2793,1503.5,348.2793" style="stroke:#181818;stroke-width:1.0;"/><line style="stroke:#181818;stroke-width:1.0;" x1="718.5" x2="1505.5" y1="348.2793" y2="348.2793"/><text fill="#000000" font-family="sans-serif" font-size="13" lengthAdjust="spacing" textLength="65" x="725.5" y="343.0166">save(class)</text><!--SRC=[bPB1Ri8m38RlVGgB4qFQ2w0E2I4c8N501Hx0Iqs9Q9CgITbu-pcbfCq4RFCfJVpzjd_NdgIgqM05bLPQ78sk29nfAB7XfKPnmeAsxb8I618ELL4E4-mHS_qfLG47B2qboLmuRM2q8nH7CYD02zqvOS998MjK3aQB4gtTho1DQqEMb4CdjPhDMcAnNyNP-pf7Hq-P9yX2AsTqMP9X5Ekwb2AgjilMCRiXOwLrf0HvbhwShzbVTk1ccSLSHhMsaWsulAFtuSBOuNhga6ovkUC3f-MwGXawMi-tsuJxnm-qr2Nrucbgmlb6UE64IyapJnqiJu2Z-u3NcJSMffn_ik0qDAr5OFarRtZ1g817DGZ2rxl2GTBlfBtnuNLOhbLhUgFxX80DAHzNq5i-cGGuJkbB-iL4JpS5bhXDrOtZpO83_teYRkHdvFImjM4CF6k7BEIPx5MxBVMO_9Dyx4JmOUobNvvZhVqUyZ1lVTfrzHPh_4U2wriyqxWL-gNymB_xw_cZqOFdyBDoV0C0]--></g></svg>