<?xml version="1.0" encoding="us-ascii" standalone="no"?><svg xmlns="http://www.w3.org/2000/svg" xmlns:xlink="http://www.w3.org/1999/xlink" contentStyleType="text/css" height="1070px" preserveAspectRatio="none" style="width:434px;height:1070px;background:#FFFFFF;" version="1.1" viewBox="0 0 434 1070" width="434px" zoomAndPan="magnify"><defs/><g><text fill="#000000" font-family="sans-serif" font-size="14" font-weight="bold" lengthAdjust="spacing" textLength="406" x="10" y="30.1074">US1001 System Sequence Diagram (SSD) - Alternative One</text><rect fill="#FFFFFF" height="845.1484" style="stroke:#181818;stroke-width:1.0;" width="10" x="80" y="133.2422"/><rect fill="#FFFFFF" height="31.291" style="stroke:#181818;stroke-width:1.0;" width="10" x="336" y="156.5332"/><rect fill="#FFFFFF" height="48.582" style="stroke:#181818;stroke-width:1.0;" width="10" x="336" y="271.6973"/><rect fill="#FFFFFF" height="31.291" style="stroke:#181818;stroke-width:1.0;" width="10" x="336" y="351.5703"/><rect fill="#FFFFFF" height="31.291" style="stroke:#181818;stroke-width:1.0;" width="10" x="336" y="414.1523"/><rect fill="#FFFFFF" height="62.582" style="stroke:#181818;stroke-width:1.0;" width="10" x="336" y="510.0254"/><rect fill="#FFFFFF" height="205.0371" style="stroke:#181818;stroke-width:1.0;" width="10" x="336" y="654.4805"/><rect fill="#FFFFFF" height="31.291" style="stroke:#181818;stroke-width:1.0;" width="10" x="336" y="924.0996"/><rect fill="none" height="767.5664" style="stroke:#000000;stroke-width:1.5;" width="359" x="34" y="202.8242"/><rect fill="none" height="224.3281" style="stroke:#000000;stroke-width:1.5;" width="339" x="44" y="229.1152"/><rect fill="none" height="113.1641" style="stroke:#000000;stroke-width:1.5;" width="339" x="44" y="467.4434"/><rect fill="none" height="272.9102" style="stroke:#000000;stroke-width:1.5;" width="339" x="44" y="594.6074"/><rect fill="none" height="81.873" style="stroke:#000000;stroke-width:1.5;" width="339" x="44" y="881.5176"/><line style="stroke:#181818;stroke-width:0.5;stroke-dasharray:5.0,5.0;" x1="85" x2="85" y1="123.2422" y2="987.3906"/><line style="stroke:#181818;stroke-width:0.5;stroke-dasharray:5.0,5.0;" x1="341" x2="341" y1="123.2422" y2="987.3906"/><text fill="#000000" font-family="sans-serif" font-size="14" lengthAdjust="spacing" textLength="56" x="54" y="119.7285">Manager</text><ellipse cx="85" cy="53.1211" fill="#E3E3E3" rx="8" ry="8" style="stroke:#181818;stroke-width:0.5;"/><path d="M85,61.1211 L85,88.1211 M72,69.1211 L98,69.1211 M85,88.1211 L72,103.1211 M85,88.1211 L98,103.1211 " fill="none" style="stroke:#181818;stroke-width:0.5;"/><text fill="#000000" font-family="sans-serif" font-size="14" lengthAdjust="spacing" textLength="56" x="54" y="1001.498">Manager</text><ellipse cx="85" cy="1013.5117" fill="#E3E3E3" rx="8" ry="8" style="stroke:#181818;stroke-width:0.5;"/><path d="M85,1021.5117 L85,1048.5117 M72,1029.5117 L98,1029.5117 M85,1048.5117 L72,1063.5117 M85,1048.5117 L98,1063.5117 " fill="none" style="stroke:#181818;stroke-width:0.5;"/><rect fill="#E3E3E3" height="32.6211" rx="2.5" ry="2.5" style="stroke:#181818;stroke-width:0.5;" width="64" x="309" y="89.6211"/><text fill="#000000" font-family="sans-serif" font-size="14" lengthAdjust="spacing" textLength="50" x="316" y="111.7285">:System</text><rect fill="#E3E3E3" height="32.6211" rx="2.5" ry="2.5" style="stroke:#181818;stroke-width:0.5;" width="64" x="309" y="986.3906"/><text fill="#000000" font-family="sans-serif" font-size="14" lengthAdjust="spacing" textLength="50" x="316" y="1008.498">:System</text><rect fill="#FFFFFF" height="845.1484" style="stroke:#181818;stroke-width:1.0;" width="10" x="80" y="133.2422"/><rect fill="#FFFFFF" height="31.291" style="stroke:#181818;stroke-width:1.0;" width="10" x="336" y="156.5332"/><rect fill="#FFFFFF" height="48.582" style="stroke:#181818;stroke-width:1.0;" width="10" x="336" y="271.6973"/><rect fill="#FFFFFF" height="31.291" style="stroke:#181818;stroke-width:1.0;" width="10" x="336" y="351.5703"/><rect fill="#FFFFFF" height="31.291" style="stroke:#181818;stroke-width:1.0;" width="10" x="336" y="414.1523"/><rect fill="#FFFFFF" height="62.582" style="stroke:#181818;stroke-width:1.0;" width="10" x="336" y="510.0254"/><rect fill="#FFFFFF" height="205.0371" style="stroke:#181818;stroke-width:1.0;" width="10" x="336" y="654.4805"/><rect fill="#FFFFFF" height="31.291" style="stroke:#181818;stroke-width:1.0;" width="10" x="336" y="924.0996"/><polygon fill="#181818" points="324,152.5332,334,156.5332,324,160.5332,328,156.5332" style="stroke:#181818;stroke-width:1.0;"/><line style="stroke:#181818;stroke-width:1.0;" x1="90" x2="330" y1="156.5332" y2="156.5332"/><text fill="#000000" font-family="sans-serif" font-size="13" font-weight="bold" lengthAdjust="spacing" textLength="7" x="97" y="151.2705">1</text><text fill="#000000" font-family="sans-serif" font-size="13" lengthAdjust="spacing" textLength="166" x="108" y="151.2705">asks to enter manager menu</text><polygon fill="#181818" points="101,183.8242,91,187.8242,101,191.8242,97,187.8242" style="stroke:#181818;stroke-width:1.0;"/><line style="stroke:#181818;stroke-width:1.0;" x1="95" x2="340" y1="187.8242" y2="187.8242"/><text fill="#000000" font-family="sans-serif" font-size="13" font-weight="bold" lengthAdjust="spacing" textLength="7" x="107" y="182.5615">2</text><text fill="#000000" font-family="sans-serif" font-size="13" lengthAdjust="spacing" textLength="180" x="118" y="182.5615">shows manager menu interface</text><path d="M34,202.8242 L107,202.8242 L107,212.1152 L97,222.1152 L34,222.1152 L34,202.8242 " fill="#EEEEEE" style="stroke:#000000;stroke-width:1.5;"/><rect fill="none" height="767.5664" style="stroke:#000000;stroke-width:1.5;" width="359" x="34" y="202.8242"/><text fill="#000000" font-family="sans-serif" font-size="13" font-weight="bold" lengthAdjust="spacing" textLength="28" x="49" y="217.8525">loop</text><path d="M44,229.1152 L109,229.1152 L109,238.4063 L99,248.4063 L44,248.4063 L44,229.1152 " fill="#EEEEEE" style="stroke:#000000;stroke-width:1.5;"/><rect fill="none" height="224.3281" style="stroke:#000000;stroke-width:1.5;" width="339" x="44" y="229.1152"/><text fill="#000000" font-family="sans-serif" font-size="13" font-weight="bold" lengthAdjust="spacing" textLength="20" x="59" y="244.1436">opt</text><text fill="#000000" font-family="sans-serif" font-size="11" font-weight="bold" lengthAdjust="spacing" textLength="14" x="124" y="242.9854">[1]</text><polygon fill="#181818" points="324,267.6973,334,271.6973,324,275.6973,328,271.6973" style="stroke:#181818;stroke-width:1.0;"/><line style="stroke:#181818;stroke-width:1.0;" x1="90" x2="330" y1="271.6973" y2="271.6973"/><text fill="#000000" font-family="sans-serif" font-size="13" font-weight="bold" lengthAdjust="spacing" textLength="7" x="97" y="266.4346">3</text><text fill="#000000" font-family="sans-serif" font-size="13" lengthAdjust="spacing" textLength="90" x="108" y="266.4346">register an user</text><polygon fill="#181818" points="101,316.2793,91,320.2793,101,324.2793,97,320.2793" style="stroke:#181818;stroke-width:1.0;"/><line style="stroke:#181818;stroke-width:1.0;" x1="95" x2="340" y1="320.2793" y2="320.2793"/><text fill="#000000" font-family="sans-serif" font-size="13" font-weight="bold" lengthAdjust="spacing" textLength="7" x="107" y="306.3711">4</text><text fill="#000000" font-family="sans-serif" font-size="13" lengthAdjust="spacing" textLength="100" x="118" y="297.7256">asks type of user</text><text fill="#000000" font-family="sans-serif" font-size="13" lengthAdjust="spacing" textLength="152" x="118" y="315.0166">(teacher/manager/student)</text><polygon fill="#181818" points="324,347.5703,334,351.5703,324,355.5703,328,351.5703" style="stroke:#181818;stroke-width:1.0;"/><line style="stroke:#181818;stroke-width:1.0;" x1="90" x2="330" y1="351.5703" y2="351.5703"/><text fill="#000000" font-family="sans-serif" font-size="13" font-weight="bold" lengthAdjust="spacing" textLength="7" x="97" y="346.3076">5</text><text fill="#000000" font-family="sans-serif" font-size="13" lengthAdjust="spacing" textLength="114" x="108" y="346.3076">selects type of user</text><polygon fill="#181818" points="101,378.8613,91,382.8613,101,386.8613,97,382.8613" style="stroke:#181818;stroke-width:1.0;"/><line style="stroke:#181818;stroke-width:1.0;" x1="95" x2="340" y1="382.8613" y2="382.8613"/><text fill="#000000" font-family="sans-serif" font-size="13" font-weight="bold" lengthAdjust="spacing" textLength="7" x="107" y="377.5986">6</text><text fill="#000000" font-family="sans-serif" font-size="13" lengthAdjust="spacing" textLength="88" x="118" y="377.5986">asks for details</text><polygon fill="#181818" points="324,410.1523,334,414.1523,324,418.1523,328,414.1523" style="stroke:#181818;stroke-width:1.0;"/><line style="stroke:#181818;stroke-width:1.0;" x1="90" x2="330" y1="414.1523" y2="414.1523"/><text fill="#000000" font-family="sans-serif" font-size="13" font-weight="bold" lengthAdjust="spacing" textLength="7" x="97" y="408.8896">7</text><text fill="#000000" font-family="sans-serif" font-size="13" lengthAdjust="spacing" textLength="74" x="108" y="408.8896">types details</text><polygon fill="#181818" points="101,441.4434,91,445.4434,101,449.4434,97,445.4434" style="stroke:#181818;stroke-width:1.0;"/><line style="stroke:#181818;stroke-width:1.0;" x1="95" x2="340" y1="445.4434" y2="445.4434"/><text fill="#000000" font-family="sans-serif" font-size="13" font-weight="bold" lengthAdjust="spacing" textLength="7" x="107" y="440.1807">8</text><text fill="#000000" font-family="sans-serif" font-size="13" lengthAdjust="spacing" textLength="170" x="118" y="440.1807">creates the user successfully</text><path d="M44,467.4434 L105,467.4434 L105,476.7344 L95,486.7344 L44,486.7344 L44,467.4434 " fill="#EEEEEE" style="stroke:#000000;stroke-width:1.5;"/><rect fill="none" height="113.1641" style="stroke:#000000;stroke-width:1.5;" width="339" x="44" y="467.4434"/><text fill="#000000" font-family="sans-serif" font-size="13" font-weight="bold" lengthAdjust="spacing" textLength="16" x="59" y="482.4717">alt</text><text fill="#000000" font-family="sans-serif" font-size="11" font-weight="bold" lengthAdjust="spacing" textLength="14" x="120" y="481.3135">[2]</text><polygon fill="#181818" points="101,506.0254,91,510.0254,101,514.0254,97,510.0254" style="stroke:#181818;stroke-width:1.0;"/><line style="stroke:#181818;stroke-width:1.0;" x1="95" x2="335" y1="510.0254" y2="510.0254"/><text fill="#000000" font-family="sans-serif" font-size="13" font-weight="bold" lengthAdjust="spacing" textLength="7" x="107" y="504.7627">9</text><text fill="#000000" font-family="sans-serif" font-size="13" lengthAdjust="spacing" textLength="101" x="118" y="504.7627">show list of users</text><polygon fill="#181818" points="324,537.3164,334,541.3164,324,545.3164,328,541.3164" style="stroke:#181818;stroke-width:1.0;"/><line style="stroke:#181818;stroke-width:1.0;" x1="90" x2="330" y1="541.3164" y2="541.3164"/><text fill="#000000" font-family="sans-serif" font-size="13" font-weight="bold" lengthAdjust="spacing" textLength="14" x="97" y="536.0537">10</text><text fill="#000000" font-family="sans-serif" font-size="13" lengthAdjust="spacing" textLength="71" x="115" y="536.0537">selects user</text><polygon fill="#181818" points="101,568.6074,91,572.6074,101,576.6074,97,572.6074" style="stroke:#181818;stroke-width:1.0;"/><line style="stroke:#181818;stroke-width:1.0;" x1="95" x2="340" y1="572.6074" y2="572.6074"/><text fill="#000000" font-family="sans-serif" font-size="13" font-weight="bold" lengthAdjust="spacing" textLength="14" x="107" y="567.3447">11</text><text fill="#000000" font-family="sans-serif" font-size="13" lengthAdjust="spacing" textLength="147" x="125" y="567.3447">shows operation success</text><path d="M44,594.6074 L105,594.6074 L105,603.8984 L95,613.8984 L44,613.8984 L44,594.6074 " fill="#EEEEEE" style="stroke:#000000;stroke-width:1.5;"/><rect fill="none" height="272.9102" style="stroke:#000000;stroke-width:1.5;" width="339" x="44" y="594.6074"/><text fill="#000000" font-family="sans-serif" font-size="13" font-weight="bold" lengthAdjust="spacing" textLength="16" x="59" y="609.6357">alt</text><text fill="#000000" font-family="sans-serif" font-size="11" font-weight="bold" lengthAdjust="spacing" textLength="14" x="120" y="608.4775">[3]</text><polygon fill="#181818" points="101,650.4805,91,654.4805,101,658.4805,97,654.4805" style="stroke:#181818;stroke-width:1.0;"/><line style="stroke:#181818;stroke-width:1.0;" x1="95" x2="335" y1="654.4805" y2="654.4805"/><text fill="#000000" font-family="sans-serif" font-size="13" font-weight="bold" lengthAdjust="spacing" textLength="14" x="107" y="640.5723">12</text><text fill="#000000" font-family="sans-serif" font-size="13" lengthAdjust="spacing" textLength="166" x="125" y="631.9268">shows list of parameters and</text><text fill="#000000" font-family="sans-serif" font-size="13" lengthAdjust="spacing" textLength="167" x="129" y="649.2178">asks parameter to be sort on</text><polygon fill="#181818" points="324,681.7715,334,685.7715,324,689.7715,328,685.7715" style="stroke:#181818;stroke-width:1.0;"/><line style="stroke:#181818;stroke-width:1.0;" x1="90" x2="330" y1="685.7715" y2="685.7715"/><text fill="#000000" font-family="sans-serif" font-size="13" font-weight="bold" lengthAdjust="spacing" textLength="14" x="97" y="680.5088">13</text><text fill="#000000" font-family="sans-serif" font-size="13" lengthAdjust="spacing" textLength="104" x="115" y="680.5088">selects parameter</text><polygon fill="#181818" points="101,730.3535,91,734.3535,101,738.3535,97,734.3535" style="stroke:#181818;stroke-width:1.0;"/><line style="stroke:#181818;stroke-width:1.0;" x1="95" x2="335" y1="734.3535" y2="734.3535"/><text fill="#000000" font-family="sans-serif" font-size="13" font-weight="bold" lengthAdjust="spacing" textLength="14" x="107" y="720.4453">14</text><text fill="#000000" font-family="sans-serif" font-size="13" lengthAdjust="spacing" textLength="104" x="125" y="711.7998">asks sorting order</text><text fill="#000000" font-family="sans-serif" font-size="13" lengthAdjust="spacing" textLength="137" x="125" y="729.0908">(ascending/descending)</text><polygon fill="#181818" points="324,761.6445,334,765.6445,324,769.6445,328,765.6445" style="stroke:#181818;stroke-width:1.0;"/><line style="stroke:#181818;stroke-width:1.0;" x1="90" x2="330" y1="765.6445" y2="765.6445"/><text fill="#000000" font-family="sans-serif" font-size="13" font-weight="bold" lengthAdjust="spacing" textLength="14" x="97" y="760.3818">15</text><text fill="#000000" font-family="sans-serif" font-size="13" lengthAdjust="spacing" textLength="118" x="115" y="760.3818">selects sorting order</text><polygon fill="#181818" points="101,792.9355,91,796.9355,101,800.9355,97,796.9355" style="stroke:#181818;stroke-width:1.0;"/><line style="stroke:#181818;stroke-width:1.0;" x1="95" x2="335" y1="796.9355" y2="796.9355"/><text fill="#000000" font-family="sans-serif" font-size="13" font-weight="bold" lengthAdjust="spacing" textLength="14" x="107" y="791.6729">16</text><text fill="#000000" font-family="sans-serif" font-size="13" lengthAdjust="spacing" textLength="204" x="125" y="791.6729">shows menu to disable/enable user</text><polygon fill="#181818" points="324,824.2266,334,828.2266,324,832.2266,328,828.2266" style="stroke:#181818;stroke-width:1.0;"/><line style="stroke:#181818;stroke-width:1.0;" x1="90" x2="330" y1="828.2266" y2="828.2266"/><text fill="#000000" font-family="sans-serif" font-size="13" font-weight="bold" lengthAdjust="spacing" textLength="14" x="97" y="822.9639">17</text><text fill="#000000" font-family="sans-serif" font-size="13" lengthAdjust="spacing" textLength="81" x="115" y="822.9639">selects option</text><polygon fill="#181818" points="101,855.5176,91,859.5176,101,863.5176,97,859.5176" style="stroke:#181818;stroke-width:1.0;"/><line style="stroke:#181818;stroke-width:1.0;" x1="95" x2="340" y1="859.5176" y2="859.5176"/><text fill="#000000" font-family="sans-serif" font-size="13" font-weight="bold" lengthAdjust="spacing" textLength="14" x="107" y="854.2549">18</text><text fill="#000000" font-family="sans-serif" font-size="13" lengthAdjust="spacing" textLength="147" x="125" y="854.2549">shows operation success</text><path d="M44,881.5176 L105,881.5176 L105,890.8086 L95,900.8086 L44,900.8086 L44,881.5176 " fill="#EEEEEE" style="stroke:#000000;stroke-width:1.5;"/><rect fill="none" height="81.873" style="stroke:#000000;stroke-width:1.5;" width="339" x="44" y="881.5176"/><text fill="#000000" font-family="sans-serif" font-size="13" font-weight="bold" lengthAdjust="spacing" textLength="16" x="59" y="896.5459">alt</text><text fill="#000000" font-family="sans-serif" font-size="11" font-weight="bold" lengthAdjust="spacing" textLength="14" x="120" y="895.3877">[4]</text><polygon fill="#181818" points="324,920.0996,334,924.0996,324,928.0996,328,924.0996" style="stroke:#181818;stroke-width:1.0;"/><line style="stroke:#181818;stroke-width:1.0;" x1="90" x2="330" y1="924.0996" y2="924.0996"/><text fill="#000000" font-family="sans-serif" font-size="13" font-weight="bold" lengthAdjust="spacing" textLength="14" x="97" y="918.8369">19</text><text fill="#000000" font-family="sans-serif" font-size="13" lengthAdjust="spacing" textLength="111" x="115" y="918.8369">exit manager menu</text><polygon fill="#181818" points="101,951.3906,91,955.3906,101,959.3906,97,955.3906" style="stroke:#181818;stroke-width:1.0;"/><line style="stroke:#181818;stroke-width:1.0;" x1="95" x2="340" y1="955.3906" y2="955.3906"/><text fill="#000000" font-family="sans-serif" font-size="13" font-weight="bold" lengthAdjust="spacing" textLength="14" x="107" y="950.1279">20</text><text fill="#000000" font-family="sans-serif" font-size="13" lengthAdjust="spacing" textLength="126" x="125" y="950.1279">exits to system menu</text><!--SRC=[dLGxRzim4DxrAmwUuY5mt7RoKA10rgA3a2qBJPramXIfyav9_Uzx92srZaKtgHVHv7sFUv1qD6vGGVNGU-Vr8VWUWSE85SqdWz97rM7D9uiGKBDodVqxW0wgyQ_6TT0gIrXLR5X2d-hjmyCMwXCnzb3Zpn6THdWqgekekxf-NCCzVBECmIasBmW_dA3LoDwD_Hw3h3Nx0Alloec3i095y4Ho8C9ij1cKOrZjiaGwpSi4D2-ACOTNwGFtNoStEuaz4h07T28FVHQ07jrOWVnc_4GODyzWeObqEqdSlz855aoaQvN616ZmBO_rVaX7Vc3OfjMLjO2TeUXAEHYZ_KL3ovPoMgS1mRS93C_kZiN60SFcx7H3F3QIzxhWSS6Lv8fMMd_9_VvA9LkjjB91LiRIHvIZ8bq0toMf0qg863vWBWIDMYDHErfxAkaNzkCkkYOsBOSeo_2fE1DWfNzJaPOjtofnAksjYVC31hamtaqvtIfdEHj9GcHYAf-hQbbfIYHTT9IP91dAvjdbXiwxyIBj4SW7YNRLMy5IeZF-MZxnHxxuhFZGv45MfCMuR6qQd9RhgiX_WI-bcAwj-6yCgRt53RhuEJUXn2o38EKlKLxtPw4tVpem3TINvUS0Vnd-hmVgZ4tF7EMJ6VwF6O-_-2SzLxy1]--></g></svg>