<?xml version="1.0" encoding="us-ascii" standalone="no"?><svg xmlns="http://www.w3.org/2000/svg" xmlns:xlink="http://www.w3.org/1999/xlink" contentStyleType="text/css" height="586px" preserveAspectRatio="none" style="width:1605px;height:586px;background:#FFFFFF;" version="1.1" viewBox="0 0 1605 586" width="1605px" zoomAndPan="magnify"><defs/><g><rect fill="#FFFFFF" height="392.1523" style="stroke:#181818;stroke-width:1.0;" width="10" x="29.5" y="93.6211"/><rect fill="#FFFFFF" height="377.8613" style="stroke:#181818;stroke-width:1.0;" width="10" x="243.5" y="116.9121"/><rect fill="#FFFFFF" height="200.0762" style="stroke:#181818;stroke-width:1.0;" width="10" x="443" y="148.2031"/><rect fill="#FFFFFF" height="106.2031" style="stroke:#181818;stroke-width:1.0;" width="10" x="443" y="379.5703"/><rect fill="#FFFFFF" height="127.4941" style="stroke:#181818;stroke-width:1.0;" width="10" x="686" y="189.4941"/><rect fill="#FFFFFF" height="74.9121" style="stroke:#181818;stroke-width:1.0;" width="10" x="686" y="410.8613"/><rect fill="#FFFFFF" height="93.873" style="stroke:#181818;stroke-width:1.0;" width="10" x="934" y="223.1152"/><rect fill="#FFFFFF" height="31.291" style="stroke:#181818;stroke-width:1.0;" width="10" x="1155" y="254.4063"/><line style="stroke:#181818;stroke-width:0.5;stroke-dasharray:5.0,5.0;" x1="34" x2="34" y1="83.6211" y2="503.7734"/><line style="stroke:#181818;stroke-width:0.5;stroke-dasharray:5.0,5.0;" x1="248.5" x2="248.5" y1="83.6211" y2="503.7734"/><line style="stroke:#181818;stroke-width:0.5;stroke-dasharray:5.0,5.0;" x1="447.5" x2="447.5" y1="83.6211" y2="503.7734"/><line style="stroke:#181818;stroke-width:0.5;stroke-dasharray:5.0,5.0;" x1="690.5" x2="690.5" y1="188.0137" y2="503.7734"/><line style="stroke:#181818;stroke-width:0.5;stroke-dasharray:5.0,5.0;" x1="938.5" x2="938.5" y1="83.6211" y2="503.7734"/><line style="stroke:#181818;stroke-width:0.5;stroke-dasharray:5.0,5.0;" x1="1159.5" x2="1159.5" y1="83.6211" y2="503.7734"/><line style="stroke:#181818;stroke-width:0.5;stroke-dasharray:5.0,5.0;" x1="1336.5" x2="1336.5" y1="450.6719" y2="503.7734"/><line style="stroke:#181818;stroke-width:0.5;stroke-dasharray:5.0,5.0;" x1="1510.5" x2="1510.5" y1="83.6211" y2="503.7734"/><text fill="#000000" font-family="sans-serif" font-size="14" lengthAdjust="spacing" textLength="53" x="5" y="80.1074">Teacher</text><ellipse cx="34.5" cy="13.5" fill="#E3E3E3" rx="8" ry="8" style="stroke:#181818;stroke-width:0.5;"/><path d="M34.5,21.5 L34.5,48.5 M21.5,29.5 L47.5,29.5 M34.5,48.5 L21.5,63.5 M34.5,48.5 L47.5,63.5 " fill="none" style="stroke:#181818;stroke-width:0.5;"/><text fill="#000000" font-family="sans-serif" font-size="14" lengthAdjust="spacing" textLength="53" x="5" y="517.8809">Teacher</text><ellipse cx="34.5" cy="529.8945" fill="#E3E3E3" rx="8" ry="8" style="stroke:#181818;stroke-width:0.5;"/><path d="M34.5,537.8945 L34.5,564.8945 M21.5,545.8945 L47.5,545.8945 M34.5,564.8945 L21.5,579.8945 M34.5,564.8945 L47.5,579.8945 " fill="none" style="stroke:#181818;stroke-width:0.5;"/><rect fill="#E3E3E3" height="32.6211" rx="2.5" ry="2.5" style="stroke:#181818;stroke-width:0.5;" width="160" x="168.5" y="50"/><text fill="#000000" font-family="sans-serif" font-size="14" lengthAdjust="spacing" textLength="146" x="175.5" y="72.1074">ClassUI &#171;presentation&#187;</text><rect fill="#E3E3E3" height="32.6211" rx="2.5" ry="2.5" style="stroke:#181818;stroke-width:0.5;" width="160" x="168.5" y="502.7734"/><text fill="#000000" font-family="sans-serif" font-size="14" lengthAdjust="spacing" textLength="146" x="175.5" y="524.8809">ClassUI &#171;presentation&#187;</text><rect fill="#E3E3E3" height="32.6211" rx="2.5" ry="2.5" style="stroke:#181818;stroke-width:0.5;" width="219" x="338.5" y="50"/><text fill="#000000" font-family="sans-serif" font-size="14" lengthAdjust="spacing" textLength="205" x="345.5" y="72.1074">ScheduleClassUI &#171;presentation&#187;</text><rect fill="#E3E3E3" height="32.6211" rx="2.5" ry="2.5" style="stroke:#181818;stroke-width:0.5;" width="219" x="338.5" y="502.7734"/><text fill="#000000" font-family="sans-serif" font-size="14" lengthAdjust="spacing" textLength="205" x="345.5" y="524.8809">ScheduleClassUI &#171;presentation&#187;</text><rect fill="#E3E3E3" height="32.6211" rx="2.5" ry="2.5" style="stroke:#181818;stroke-width:0.5;" width="247" x="567.5" y="502.7734"/><text fill="#000000" font-family="sans-serif" font-size="14" lengthAdjust="spacing" textLength="233" x="574.5" y="524.8809">ClassCreatorController &#171;application&#187;</text><rect fill="#E3E3E3" height="32.6211" rx="2.5" ry="2.5" style="stroke:#181818;stroke-width:0.5;" width="229" x="824.5" y="50"/><text fill="#000000" font-family="sans-serif" font-size="14" lengthAdjust="spacing" textLength="215" x="831.5" y="72.1074">PersistenceContext &#171;persistence&#187;</text><rect fill="#E3E3E3" height="32.6211" rx="2.5" ry="2.5" style="stroke:#181818;stroke-width:0.5;" width="229" x="824.5" y="502.7734"/><text fill="#000000" font-family="sans-serif" font-size="14" lengthAdjust="spacing" textLength="215" x="831.5" y="524.8809">PersistenceContext &#171;persistence&#187;</text><rect fill="#E3E3E3" height="32.6211" rx="2.5" ry="2.5" style="stroke:#181818;stroke-width:0.5;" width="193" x="1063.5" y="50"/><text fill="#000000" font-family="sans-serif" font-size="14" lengthAdjust="spacing" textLength="179" x="1070.5" y="72.1074">RepositoryFactory &#171;factory&#187;</text><rect fill="#E3E3E3" height="32.6211" rx="2.5" ry="2.5" style="stroke:#181818;stroke-width:0.5;" width="193" x="1063.5" y="502.7734"/><text fill="#000000" font-family="sans-serif" font-size="14" lengthAdjust="spacing" textLength="179" x="1070.5" y="524.8809">RepositoryFactory &#171;factory&#187;</text><rect fill="#E3E3E3" height="32.6211" rx="2.5" ry="2.5" style="stroke:#181818;stroke-width:0.5;" width="140" x="1266.5" y="502.7734"/><text fill="#000000" font-family="sans-serif" font-size="14" lengthAdjust="spacing" textLength="126" x="1273.5" y="524.8809">ClassRec &#171;domain&#187;</text><text fill="#000000" font-family="sans-serif" font-size="14" lengthAdjust="spacing" textLength="182" x="1416.5" y="80.1074">ClassRepository&#171;repository&#187;</text><path d="M1492.5,29 C1492.5,19 1510.5,19 1510.5,19 C1510.5,19 1528.5,19 1528.5,29 L1528.5,55 C1528.5,65 1510.5,65 1510.5,65 C1510.5,65 1492.5,65 1492.5,55 L1492.5,29 " fill="#E3E3E3" style="stroke:#181818;stroke-width:1.5;"/><path d="M1492.5,29 C1492.5,39 1510.5,39 1510.5,39 C1510.5,39 1528.5,39 1528.5,29 " fill="none" style="stroke:#181818;stroke-width:1.5;"/><text fill="#000000" font-family="sans-serif" font-size="14" lengthAdjust="spacing" textLength="182" x="1416.5" y="517.8809">ClassRepository&#171;repository&#187;</text><path d="M1492.5,531.3945 C1492.5,521.3945 1510.5,521.3945 1510.5,521.3945 C1510.5,521.3945 1528.5,521.3945 1528.5,531.3945 L1528.5,557.3945 C1528.5,567.3945 1510.5,567.3945 1510.5,567.3945 C1510.5,567.3945 1492.5,567.3945 1492.5,557.3945 L1492.5,531.3945 " fill="#E3E3E3" style="stroke:#181818;stroke-width:1.5;"/><path d="M1492.5,531.3945 C1492.5,541.3945 1510.5,541.3945 1510.5,541.3945 C1510.5,541.3945 1528.5,541.3945 1528.5,531.3945 " fill="none" style="stroke:#181818;stroke-width:1.5;"/><rect fill="#FFFFFF" height="392.1523" style="stroke:#181818;stroke-width:1.0;" width="10" x="29.5" y="93.6211"/><rect fill="#FFFFFF" height="377.8613" style="stroke:#181818;stroke-width:1.0;" width="10" x="243.5" y="116.9121"/><rect fill="#FFFFFF" height="200.0762" style="stroke:#181818;stroke-width:1.0;" width="10" x="443" y="148.2031"/><rect fill="#FFFFFF" height="106.2031" style="stroke:#181818;stroke-width:1.0;" width="10" x="443" y="379.5703"/><rect fill="#FFFFFF" height="127.4941" style="stroke:#181818;stroke-width:1.0;" width="10" x="686" y="189.4941"/><rect fill="#FFFFFF" height="74.9121" style="stroke:#181818;stroke-width:1.0;" width="10" x="686" y="410.8613"/><rect fill="#FFFFFF" height="93.873" style="stroke:#181818;stroke-width:1.0;" width="10" x="934" y="223.1152"/><rect fill="#FFFFFF" height="31.291" style="stroke:#181818;stroke-width:1.0;" width="10" x="1155" y="254.4063"/><polygon fill="#181818" points="231.5,112.9121,241.5,116.9121,231.5,120.9121,235.5,116.9121" style="stroke:#181818;stroke-width:1.0;"/><line style="stroke:#181818;stroke-width:1.0;" x1="39.5" x2="237.5" y1="116.9121" y2="116.9121"/><text fill="#000000" font-family="sans-serif" font-size="13" lengthAdjust="spacing" textLength="185" x="46.5" y="111.6494">asks to schedule an extra class</text><polygon fill="#181818" points="431,144.2031,441,148.2031,431,152.2031,435,148.2031" style="stroke:#181818;stroke-width:1.0;"/><line style="stroke:#181818;stroke-width:1.0;" x1="253.5" x2="437" y1="148.2031" y2="148.2031"/><text fill="#000000" font-family="sans-serif" font-size="13" lengthAdjust="spacing" textLength="116" x="260.5" y="142.9404">scheduleExtraClass</text><polygon fill="#181818" points="555.5,175.4941,565.5,179.4941,555.5,183.4941,559.5,179.4941" style="stroke:#181818;stroke-width:1.0;"/><line style="stroke:#181818;stroke-width:1.0;" x1="453" x2="561.5" y1="179.4941" y2="179.4941"/><text fill="#000000" font-family="sans-serif" font-size="13" lengthAdjust="spacing" textLength="36" x="460" y="174.2314">create</text><rect fill="#E3E3E3" height="32.6211" rx="2.5" ry="2.5" style="stroke:#181818;stroke-width:0.5;" width="247" x="567.5" y="156.2031"/><text fill="#000000" font-family="sans-serif" font-size="14" lengthAdjust="spacing" textLength="233" x="574.5" y="178.3105">ClassCreatorController &#171;application&#187;</text><polygon fill="#181818" points="922,219.1152,932,223.1152,922,227.1152,926,223.1152" style="stroke:#181818;stroke-width:1.0;"/><line style="stroke:#181818;stroke-width:1.0;" x1="696" x2="928" y1="223.1152" y2="223.1152"/><text fill="#000000" font-family="sans-serif" font-size="13" lengthAdjust="spacing" textLength="75" x="703" y="217.8525">repositories()</text><polygon fill="#181818" points="1143,250.4063,1153,254.4063,1143,258.4063,1147,254.4063" style="stroke:#181818;stroke-width:1.0;"/><line style="stroke:#181818;stroke-width:1.0;" x1="944" x2="1149" y1="254.4063" y2="254.4063"/><text fill="#000000" font-family="sans-serif" font-size="13" lengthAdjust="spacing" textLength="36" x="951" y="249.1436">create</text><polygon fill="#181818" points="1498.5,281.6973,1508.5,285.6973,1498.5,289.6973,1502.5,285.6973" style="stroke:#181818;stroke-width:1.0;"/><line style="stroke:#181818;stroke-width:1.0;" x1="1160" x2="1504.5" y1="285.6973" y2="285.6973"/><text fill="#000000" font-family="sans-serif" font-size="13" lengthAdjust="spacing" textLength="36" x="1167" y="280.4346">create</text><polygon fill="#181818" points="702,312.9883,692,316.9883,702,320.9883,698,316.9883" style="stroke:#181818;stroke-width:1.0;"/><line style="stroke:#181818;stroke-width:1.0;stroke-dasharray:2.0,2.0;" x1="696" x2="938" y1="316.9883" y2="316.9883"/><text fill="#000000" font-family="sans-serif" font-size="13" lengthAdjust="spacing" textLength="95" x="708" y="311.7256">ClassRepository</text><polygon fill="#181818" points="50.5,344.2793,40.5,348.2793,50.5,352.2793,46.5,348.2793" style="stroke:#181818;stroke-width:1.0;"/><line style="stroke:#181818;stroke-width:1.0;stroke-dasharray:2.0,2.0;" x1="44.5" x2="447" y1="348.2793" y2="348.2793"/><text fill="#000000" font-family="sans-serif" font-size="13" lengthAdjust="spacing" textLength="110" x="56.5" y="343.0166">asks data for class</text><polygon fill="#181818" points="431,375.5703,441,379.5703,431,383.5703,435,379.5703" style="stroke:#181818;stroke-width:1.0;"/><line style="stroke:#181818;stroke-width:1.0;" x1="39.5" x2="437" y1="379.5703" y2="379.5703"/><text fill="#000000" font-family="sans-serif" font-size="13" lengthAdjust="spacing" textLength="93" x="46.5" y="374.3076">gives class data</text><polygon fill="#181818" points="674,406.8613,684,410.8613,674,414.8613,678,410.8613" style="stroke:#181818;stroke-width:1.0;"/><line style="stroke:#181818;stroke-width:1.0;" x1="453" x2="680" y1="410.8613" y2="410.8613"/><text fill="#000000" font-family="sans-serif" font-size="13" lengthAdjust="spacing" textLength="109" x="460" y="405.5986">registerClass(data)</text><polygon fill="#181818" points="1254.5,438.1523,1264.5,442.1523,1254.5,446.1523,1258.5,442.1523" style="stroke:#181818;stroke-width:1.0;"/><line style="stroke:#181818;stroke-width:1.0;" x1="696" x2="1260.5" y1="442.1523" y2="442.1523"/><text fill="#000000" font-family="sans-serif" font-size="13" lengthAdjust="spacing" textLength="141" x="703" y="436.8896">newClass = create(data)</text><rect fill="#E3E3E3" height="32.6211" rx="2.5" ry="2.5" style="stroke:#181818;stroke-width:0.5;" width="140" x="1266.5" y="418.8613"/><text fill="#000000" font-family="sans-serif" font-size="14" lengthAdjust="spacing" textLength="126" x="1273.5" y="440.9688">ClassRec &#171;domain&#187;</text><polygon fill="#181818" points="1498.5,481.7734,1508.5,485.7734,1498.5,489.7734,1502.5,485.7734" style="stroke:#181818;stroke-width:1.0;"/><line style="stroke:#181818;stroke-width:1.0;" x1="691" x2="1504.5" y1="485.7734" y2="485.7734"/><text fill="#000000" font-family="sans-serif" font-size="13" lengthAdjust="spacing" textLength="90" x="698" y="480.5107">save(newClass)</text><!--SRC=[dPDBRkCm38RtFWMHLL9WBZ3812YC352WYy1f3y2H6KU88ncIcZQtBoa_OiMJlhIo9VuVgP-KFsZJeCCZ7AsnQk_iaI2u5yhySDAWEc15st2k2HofWAQgnm5-ZwLzrQQ27TQUiknU1UjWzaIezkHcW1wwxumLGIlTe0amoslq_la1bil6aISJC6XhLgkeo9yVqkWj0ygNcZvKNOjYSEu8kQBSck1iNPDZBJPDhLMIyAbuJCKRSbxxG4QHQEajIDBBPYVSh8jKLr1ZlUQCvxyeLfnPjck_Eacntlodpe8KHvRsY7eewl5-kyrA3FWFFGrnFN-vTCDthn1snjdq2GCDncV0g_k1Nokn5tvp_C53iE0xRm4Dy3KTWf94hMfWIKlYZYm1C2TYUlbQfFb5cQZ7ObcjNbo_ksE6aYPH6dB9BBr9Zc89l2iCRW031YSq-VbY6Zt0f5-JKrd2OHmRUAEU2Ifw3JUMSEI6d_DA-fmOY-iCOzpL84mr8-RamgEpr5df2UVevwGR41a_sF6JLcbhHvXnSqTJ5gUZqYVohJQYlZKRiR6LF3WNhpmNmk97OnBVKfmrGwyH1d-wjdJKcygsXHvFDE-rYozQUcNIwBT_cky0]--></g></svg>