<?xml version="1.0" encoding="us-ascii" standalone="no"?><svg xmlns="http://www.w3.org/2000/svg" xmlns:xlink="http://www.w3.org/1999/xlink" contentStyleType="text/css" height="491px" preserveAspectRatio="none" style="width:891px;height:491px;background:#FFFFFF;" version="1.1" viewBox="0 0 891 491" width="891px" zoomAndPan="magnify"><defs/><g><rect fill="#FFFFFF" height="283.6191" style="stroke:#181818;stroke-width:1.0;" width="10" x="46" y="98.2422"/><rect fill="#FFFFFF" height="80.873" style="stroke:#181818;stroke-width:1.0;" width="10" x="327" y="98.2422"/><rect fill="#FFFFFF" height="156.4551" style="stroke:#181818;stroke-width:1.0;" width="10" x="327" y="210.4063"/><rect fill="#FFFFFF" height="125.1641" style="stroke:#181818;stroke-width:1.0;" width="10" x="536" y="210.4063"/><rect fill="none" height="238.3281" style="stroke:#000000;stroke-width:1.5;" width="875" x="10" y="136.5332"/><line style="stroke:#181818;stroke-width:0.5;stroke-dasharray:5.0,5.0;" x1="51" x2="51" y1="88.2422" y2="391.8613"/><line style="stroke:#181818;stroke-width:0.5;stroke-dasharray:5.0,5.0;" x1="332" x2="332" y1="88.2422" y2="391.8613"/><line style="stroke:#181818;stroke-width:0.5;stroke-dasharray:5.0,5.0;" x1="541" x2="541" y1="88.2422" y2="391.8613"/><line style="stroke:#181818;stroke-width:0.5;stroke-dasharray:5.0,5.0;" x1="707" x2="707" y1="88.2422" y2="391.8613"/><line style="stroke:#181818;stroke-width:0.5;stroke-dasharray:5.0,5.0;" x1="815" x2="815" y1="88.2422" y2="391.8613"/><text fill="#000000" font-family="sans-serif" font-size="14" lengthAdjust="spacing" textLength="56" x="20" y="84.7285">manager</text><ellipse cx="51" cy="18.1211" fill="#E2E2F0" rx="8" ry="8" style="stroke:#181818;stroke-width:0.5;"/><path d="M51,26.1211 L51,53.1211 M38,34.1211 L64,34.1211 M51,53.1211 L38,68.1211 M51,53.1211 L64,68.1211 " fill="none" style="stroke:#181818;stroke-width:0.5;"/><text fill="#000000" font-family="sans-serif" font-size="14" lengthAdjust="spacing" textLength="56" x="20" y="405.9688">manager</text><ellipse cx="51" cy="417.9824" fill="#E2E2F0" rx="8" ry="8" style="stroke:#181818;stroke-width:0.5;"/><path d="M51,425.9824 L51,452.9824 M38,433.9824 L64,433.9824 M51,452.9824 L38,467.9824 M51,452.9824 L64,467.9824 " fill="none" style="stroke:#181818;stroke-width:0.5;"/><rect fill="#E2E2F0" height="51.2422" rx="2.5" ry="2.5" style="stroke:#181818;stroke-width:0.5;" width="174" x="245" y="36"/><text fill="#000000" font-family="sans-serif" font-size="14" font-style="italic" lengthAdjust="spacing" textLength="95" x="284.5" y="58.1074">&#171;presentation&#187;</text><text fill="#000000" font-family="sans-serif" font-size="14" lengthAdjust="spacing" textLength="160" x="252" y="76.7285">OpenEnrollmentCourseUI</text><rect fill="#E2E2F0" height="51.2422" rx="2.5" ry="2.5" style="stroke:#181818;stroke-width:0.5;" width="174" x="245" y="390.8613"/><text fill="#000000" font-family="sans-serif" font-size="14" font-style="italic" lengthAdjust="spacing" textLength="95" x="284.5" y="412.9688">&#171;presentation&#187;</text><text fill="#000000" font-family="sans-serif" font-size="14" lengthAdjust="spacing" textLength="160" x="252" y="431.5898">OpenEnrollmentCourseUI</text><rect fill="#E2E2F0" height="51.2422" rx="2.5" ry="2.5" style="stroke:#181818;stroke-width:0.5;" width="224" x="429" y="36"/><text fill="#000000" font-family="sans-serif" font-size="14" font-style="italic" lengthAdjust="spacing" textLength="84" x="499" y="58.1074">&#171;application&#187;</text><text fill="#000000" font-family="sans-serif" font-size="14" lengthAdjust="spacing" textLength="210" x="436" y="76.7285">OpenEnrollmentCourseController</text><rect fill="#E2E2F0" height="51.2422" rx="2.5" ry="2.5" style="stroke:#181818;stroke-width:0.5;" width="224" x="429" y="390.8613"/><text fill="#000000" font-family="sans-serif" font-size="14" font-style="italic" lengthAdjust="spacing" textLength="84" x="499" y="412.9688">&#171;application&#187;</text><text fill="#000000" font-family="sans-serif" font-size="14" lengthAdjust="spacing" textLength="210" x="436" y="431.5898">OpenEnrollmentCourseController</text><rect fill="#E2E2F0" height="51.2422" rx="2.5" ry="2.5" style="stroke:#181818;stroke-width:0.5;" width="76" x="669" y="36"/><text fill="#000000" font-family="sans-serif" font-size="14" font-style="italic" lengthAdjust="spacing" textLength="62" x="676" y="58.1074">&#171;domain&#187;</text><text fill="#000000" font-family="sans-serif" font-size="14" lengthAdjust="spacing" textLength="46" x="684" y="76.7285">Course</text><rect fill="#E2E2F0" height="51.2422" rx="2.5" ry="2.5" style="stroke:#181818;stroke-width:0.5;" width="76" x="669" y="390.8613"/><text fill="#000000" font-family="sans-serif" font-size="14" font-style="italic" lengthAdjust="spacing" textLength="62" x="676" y="412.9688">&#171;domain&#187;</text><text fill="#000000" font-family="sans-serif" font-size="14" lengthAdjust="spacing" textLength="46" x="684" y="431.5898">Course</text><text fill="#000000" font-family="sans-serif" font-size="14" font-style="italic" lengthAdjust="spacing" textLength="79" x="772.5" y="66.1074">&#171;repository&#187;</text><text fill="#000000" font-family="sans-serif" font-size="14" lengthAdjust="spacing" textLength="114" x="755" y="84.7285">CourseRepository</text><path d="M797,15 C797,5 815,5 815,5 C815,5 833,5 833,15 L833,41 C833,51 815,51 815,51 C815,51 797,51 797,41 L797,15 " fill="#E2E2F0" style="stroke:#181818;stroke-width:1.5;"/><path d="M797,15 C797,25 815,25 815,25 C815,25 833,25 833,15 " fill="none" style="stroke:#181818;stroke-width:1.5;"/><text fill="#000000" font-family="sans-serif" font-size="14" font-style="italic" lengthAdjust="spacing" textLength="79" x="772.5" y="405.9688">&#171;repository&#187;</text><text fill="#000000" font-family="sans-serif" font-size="14" lengthAdjust="spacing" textLength="114" x="755" y="424.5898">CourseRepository</text><path d="M797,438.1035 C797,428.1035 815,428.1035 815,428.1035 C815,428.1035 833,428.1035 833,438.1035 L833,464.1035 C833,474.1035 815,474.1035 815,474.1035 C815,474.1035 797,474.1035 797,464.1035 L797,438.1035 " fill="#E2E2F0" style="stroke:#181818;stroke-width:1.5;"/><path d="M797,438.1035 C797,448.1035 815,448.1035 815,448.1035 C815,448.1035 833,448.1035 833,438.1035 " fill="none" style="stroke:#181818;stroke-width:1.5;"/><rect fill="#FFFFFF" height="283.6191" style="stroke:#181818;stroke-width:1.0;" width="10" x="46" y="98.2422"/><rect fill="#FFFFFF" height="80.873" style="stroke:#181818;stroke-width:1.0;" width="10" x="327" y="98.2422"/><rect fill="#FFFFFF" height="156.4551" style="stroke:#181818;stroke-width:1.0;" width="10" x="327" y="210.4063"/><rect fill="#FFFFFF" height="125.1641" style="stroke:#181818;stroke-width:1.0;" width="10" x="536" y="210.4063"/><polygon fill="#181818" points="315,117.5332,325,121.5332,315,125.5332,319,121.5332" style="stroke:#181818;stroke-width:1.0;"/><line style="stroke:#181818;stroke-width:1.0;" x1="56" x2="321" y1="121.5332" y2="121.5332"/><text fill="#000000" font-family="sans-serif" font-size="13" lengthAdjust="spacing" textLength="247" x="63" y="116.2705">Enter the menu to open course registration</text><path d="M10,136.5332 L75,136.5332 L75,145.8242 L65,155.8242 L10,155.8242 L10,136.5332 " fill="#EEEEEE" style="stroke:#000000;stroke-width:1.5;"/><rect fill="none" height="238.3281" style="stroke:#000000;stroke-width:1.5;" width="875" x="10" y="136.5332"/><text fill="#000000" font-family="sans-serif" font-size="13" font-weight="bold" lengthAdjust="spacing" textLength="20" x="25" y="151.5615">opt</text><polygon fill="#181818" points="67,175.1152,57,179.1152,67,183.1152,63,179.1152" style="stroke:#181818;stroke-width:1.0;"/><line style="stroke:#181818;stroke-width:1.0;" x1="61" x2="331" y1="179.1152" y2="179.1152"/><text fill="#000000" font-family="sans-serif" font-size="13" lengthAdjust="spacing" textLength="224" x="73" y="173.8525">Choose the course to open registration</text><polygon fill="#181818" points="315,206.4063,325,210.4063,315,214.4063,319,210.4063" style="stroke:#181818;stroke-width:1.0;"/><line style="stroke:#181818;stroke-width:1.0;" x1="56" x2="321" y1="210.4063" y2="210.4063"/><text fill="#000000" font-family="sans-serif" font-size="13" lengthAdjust="spacing" textLength="207" x="63" y="205.1436">Provide the course open registration</text><polygon fill="#181818" points="524,237.6973,534,241.6973,524,245.6973,528,241.6973" style="stroke:#181818;stroke-width:1.0;"/><line style="stroke:#181818;stroke-width:1.0;" x1="337" x2="530" y1="241.6973" y2="241.6973"/><text fill="#000000" font-family="sans-serif" font-size="13" lengthAdjust="spacing" textLength="142" x="344" y="236.4346">closeEnrollment(Course)</text><polygon fill="#181818" points="695,268.9883,705,272.9883,695,276.9883,699,272.9883" style="stroke:#181818;stroke-width:1.0;"/><line style="stroke:#181818;stroke-width:1.0;" x1="546" x2="701" y1="272.9883" y2="272.9883"/><text fill="#000000" font-family="sans-serif" font-size="13" lengthAdjust="spacing" textLength="137" x="553" y="267.7256">status(Status.ENROLL)</text><polygon fill="#181818" points="803,300.2793,813,304.2793,803,308.2793,807,304.2793" style="stroke:#181818;stroke-width:1.0;"/><line style="stroke:#181818;stroke-width:1.0;" x1="546" x2="809" y1="304.2793" y2="304.2793"/><text fill="#000000" font-family="sans-serif" font-size="13" lengthAdjust="spacing" textLength="75" x="553" y="299.0166">save(Course)</text><polygon fill="#181818" points="348,331.5703,338,335.5703,348,339.5703,344,335.5703" style="stroke:#181818;stroke-width:1.0;"/><line style="stroke:#181818;stroke-width:1.0;" x1="342" x2="540" y1="335.5703" y2="335.5703"/><text fill="#000000" font-family="sans-serif" font-size="13" lengthAdjust="spacing" textLength="134" x="354" y="330.3076">Course status changed</text><polygon fill="#181818" points="67,362.8613,57,366.8613,67,370.8613,63,366.8613" style="stroke:#181818;stroke-width:1.0;"/><line style="stroke:#181818;stroke-width:1.0;" x1="61" x2="331" y1="366.8613" y2="366.8613"/><text fill="#000000" font-family="sans-serif" font-size="13" lengthAdjust="spacing" textLength="84" x="73" y="361.5986">Changed state</text><!--SRC=[bLFDRi8m3BxdANmREm3tgkA2E4oQniIq1_1IgutKnbdY8ktjv_u0OniKUcdbV3_-7FUX4WafMov3ZLxQfbvORfQ9FblobkQ5mp9YOmnQuGWDUYmfce1Hd7L1AR0Dv3S-Sbqtv6NDRKpq_WHv7Y8bhQ0uzglL96VDNheAHUK2Xb0xstFX5tc0AwZW1bqdNQ3W1sfDd-5qHu6JqvQ_yZmUlnNQ1N5x53fcEHR-3s967CnNbw9ciF6Y2AbKbNmBmi0A1Jjq6gbqIM8VnXWEOim59VKus6MmhfYLtQcEGWVTSy62fYBSbE4ryjuLPtv_pQQShfwVRlXA_edLoC3MEfKJOZP07iq4KQN7nSaWwLAsQVRMlnQRbzts-VbsWTDkTLAufpjQk3ZziRUXCx0L-fAAgQkzQQ0_5wfNxKt8t25-muOPG_wityFlzGq0]--></g></svg>