<?xml version="1.0" encoding="us-ascii" standalone="no"?><svg xmlns="http://www.w3.org/2000/svg" xmlns:xlink="http://www.w3.org/1999/xlink" contentStyleType="text/css" height="552.8px" preserveAspectRatio="none" style="width:424px;height:552px;background:#FFFFFF;" version="1.1" viewBox="0 0 424 552" width="424px" zoomAndPan="magnify"><defs/><g><rect fill="#FFFFFF" height="404.525" style="stroke:#181818;stroke-width:0.8000000000000002;" width="8" x="14" y="74.8969"/><rect fill="#FFFFFF" height="25.0328" style="stroke:#181818;stroke-width:0.8000000000000002;" width="8" x="89.6" y="93.5297"/><rect fill="#FFFFFF" height="353.6594" style="stroke:#181818;stroke-width:0.8000000000000002;" width="8" x="194" y="118.5625"/><rect fill="#FFFFFF" height="159.7969" style="stroke:#181818;stroke-width:0.8000000000000002;" width="8" x="280.4" y="293.7922"/><rect fill="#FFFFFF" height="108.1313" style="stroke:#181818;stroke-width:0.8000000000000002;" width="8" x="325.6" y="339.8578"/><rect fill="none" height="142.1969" style="stroke:#000000;stroke-width:1.2000000000000002;" width="280.4" x="139.2" y="305.7922"/><rect fill="none" height="65.4984" style="stroke:#000000;stroke-width:1.2000000000000002;" width="264.4" x="147.2" y="376.8906"/><line style="stroke:#181818;stroke-width:0.4000000000000001;stroke-dasharray:5.0,5.0;" x1="17.6" x2="17.6" y1="66.8969" y2="486.6219"/><line style="stroke:#181818;stroke-width:0.4000000000000001;stroke-dasharray:5.0,5.0;" x1="93.6" x2="93.6" y1="66.8969" y2="486.6219"/><line style="stroke:#181818;stroke-width:0.4000000000000001;stroke-dasharray:5.0,5.0;" x1="197.6" x2="197.6" y1="66.8969" y2="486.6219"/><line style="stroke:#181818;stroke-width:0.4000000000000001;stroke-dasharray:5.0,5.0;" x1="284.4" x2="284.4" y1="66.8969" y2="486.6219"/><line style="stroke:#181818;stroke-width:0.4000000000000001;stroke-dasharray:5.0,5.0;" x1="329.2" x2="329.2" y1="66.8969" y2="486.6219"/><line style="stroke:#181818;stroke-width:0.4000000000000001;stroke-dasharray:5.0,5.0;" x1="378.8" x2="378.8" y1="66.8969" y2="486.6219"/><text fill="#000000" font-family="sans-serif" font-size="11.2" lengthAdjust="spacing" textLength="23.2" x="4" y="64.0859">User</text><ellipse cx="18" cy="10.8" fill="#E2E2F0" rx="6.4" ry="6.4" style="stroke:#181818;stroke-width:0.4000000000000001;"/><path d="M18,17.2 L18,38.8 M7.6,23.6 L28.4,23.6 M18,38.8 L7.6,50.8 M18,38.8 L28.4,50.8 " fill="none" style="stroke:#181818;stroke-width:0.4000000000000001;"/><text fill="#000000" font-family="sans-serif" font-size="11.2" lengthAdjust="spacing" textLength="23.2" x="4" y="497.9078">User</text><ellipse cx="18" cy="507.5188" fill="#E2E2F0" rx="6.4" ry="6.4" style="stroke:#181818;stroke-width:0.4000000000000001;"/><path d="M18,513.9188 L18,535.5188 M7.6,520.3188 L28.4,520.3188 M18,535.5188 L7.6,547.5188 M18,535.5188 L28.4,547.5188 " fill="none" style="stroke:#181818;stroke-width:0.4000000000000001;"/><rect fill="#E2E2F0" height="26.0969" rx="2" ry="2" style="stroke:#181818;stroke-width:0.4000000000000001;" width="107.2" x="40" y="40"/><text fill="#000000" font-family="sans-serif" font-size="11.2" lengthAdjust="spacing" textLength="96" x="45.6" y="57.6859">CreateBoardAction</text><rect fill="#E2E2F0" height="26.0969" rx="2" ry="2" style="stroke:#181818;stroke-width:0.4000000000000001;" width="107.2" x="40" y="485.8219"/><text fill="#000000" font-family="sans-serif" font-size="11.2" lengthAdjust="spacing" textLength="96" x="45.6" y="503.5078">CreateBoardAction</text><rect fill="#E2E2F0" height="26.0969" rx="2" ry="2" style="stroke:#181818;stroke-width:0.4000000000000001;" width="85.6" x="155.2" y="40"/><text fill="#000000" font-family="sans-serif" font-size="11.2" lengthAdjust="spacing" textLength="74.4" x="160.8" y="57.6859">CreateBoardUI</text><rect fill="#E2E2F0" height="26.0969" rx="2" ry="2" style="stroke:#181818;stroke-width:0.4000000000000001;" width="85.6" x="155.2" y="485.8219"/><text fill="#000000" font-family="sans-serif" font-size="11.2" lengthAdjust="spacing" textLength="74.4" x="160.8" y="503.5078">CreateBoardUI</text><rect fill="#E2E2F0" height="26.0969" rx="2" ry="2" style="stroke:#181818;stroke-width:0.4000000000000001;" width="41.6" x="263.6" y="40"/><text fill="#000000" font-family="sans-serif" font-size="11.2" lengthAdjust="spacing" textLength="30.4" x="269.2" y="57.6859">Board</text><rect fill="#E2E2F0" height="26.0969" rx="2" ry="2" style="stroke:#181818;stroke-width:0.4000000000000001;" width="41.6" x="263.6" y="485.8219"/><text fill="#000000" font-family="sans-serif" font-size="11.2" lengthAdjust="spacing" textLength="30.4" x="269.2" y="503.5078">Board</text><rect fill="#E2E2F0" height="26.0969" rx="2" ry="2" style="stroke:#181818;stroke-width:0.4000000000000001;" width="32.8" x="313.2" y="40"/><text fill="#000000" font-family="sans-serif" font-size="11.2" lengthAdjust="spacing" textLength="21.6" x="318.8" y="57.6859">Row</text><rect fill="#E2E2F0" height="26.0969" rx="2" ry="2" style="stroke:#181818;stroke-width:0.4000000000000001;" width="32.8" x="313.2" y="485.8219"/><text fill="#000000" font-family="sans-serif" font-size="11.2" lengthAdjust="spacing" textLength="21.6" x="318.8" y="503.5078">Row</text><rect fill="#E2E2F0" height="26.0969" rx="2" ry="2" style="stroke:#181818;stroke-width:0.4000000000000001;" width="49.6" x="354" y="40"/><text fill="#000000" font-family="sans-serif" font-size="11.2" lengthAdjust="spacing" textLength="38.4" x="359.6" y="57.6859">Column</text><rect fill="#E2E2F0" height="26.0969" rx="2" ry="2" style="stroke:#181818;stroke-width:0.4000000000000001;" width="49.6" x="354" y="485.8219"/><text fill="#000000" font-family="sans-serif" font-size="11.2" lengthAdjust="spacing" textLength="38.4" x="359.6" y="503.5078">Column</text><rect fill="#FFFFFF" height="404.525" style="stroke:#181818;stroke-width:0.8000000000000002;" width="8" x="14" y="74.8969"/><rect fill="#FFFFFF" height="25.0328" style="stroke:#181818;stroke-width:0.8000000000000002;" width="8" x="89.6" y="93.5297"/><rect fill="#FFFFFF" height="353.6594" style="stroke:#181818;stroke-width:0.8000000000000002;" width="8" x="194" y="118.5625"/><rect fill="#FFFFFF" height="159.7969" style="stroke:#181818;stroke-width:0.8000000000000002;" width="8" x="280.4" y="293.7922"/><rect fill="#FFFFFF" height="108.1313" style="stroke:#181818;stroke-width:0.8000000000000002;" width="8" x="325.6" y="339.8578"/><line style="stroke:#181818;stroke-width:0.8000000000000002;" x1="88" x2="80" y1="93.5297" y2="90.3297"/><line style="stroke:#181818;stroke-width:0.8000000000000002;" x1="88" x2="80" y1="93.5297" y2="96.7297"/><line style="stroke:#181818;stroke-width:0.8000000000000002;" x1="22" x2="88.8" y1="93.5297" y2="93.5297"/><text fill="#000000" font-family="sans-serif" font-size="10.4" lengthAdjust="spacing" textLength="43.2" x="27.6" y="89.3195">execute()</text><line style="stroke:#181818;stroke-width:0.8000000000000002;" x1="192.4" x2="184.4" y1="118.5625" y2="115.3625"/><line style="stroke:#181818;stroke-width:0.8000000000000002;" x1="192.4" x2="184.4" y1="118.5625" y2="121.7625"/><line style="stroke:#181818;stroke-width:0.8000000000000002;" x1="93.6" x2="193.2" y1="118.5625" y2="118.5625"/><text fill="#000000" font-family="sans-serif" font-size="10.4" lengthAdjust="spacing" textLength="62.4" x="99.2" y="114.3523">createBoard()</text><line style="stroke:#181818;stroke-width:0.8000000000000002;" x1="22.8" x2="30.8" y1="143.5953" y2="140.3953"/><line style="stroke:#181818;stroke-width:0.8000000000000002;" x1="22.8" x2="30.8" y1="143.5953" y2="146.7953"/><line style="stroke:#181818;stroke-width:0.8000000000000002;" x1="22" x2="193.2" y1="143.5953" y2="143.5953"/><text fill="#000000" font-family="sans-serif" font-size="10.4" lengthAdjust="spacing" textLength="73.6" x="35.6" y="139.3852">Enter board title</text><line style="stroke:#181818;stroke-width:0.8000000000000002;" x1="192.4" x2="184.4" y1="168.6281" y2="165.4281"/><line style="stroke:#181818;stroke-width:0.8000000000000002;" x1="192.4" x2="184.4" y1="168.6281" y2="171.8281"/><line style="stroke:#181818;stroke-width:0.8000000000000002;" x1="22" x2="193.2" y1="168.6281" y2="168.6281"/><text fill="#000000" font-family="sans-serif" font-size="10.4" lengthAdjust="spacing" textLength="53.6" x="27.6" y="164.418">Provide title</text><line style="stroke:#181818;stroke-width:0.8000000000000002;" x1="22.8" x2="30.8" y1="193.6609" y2="190.4609"/><line style="stroke:#181818;stroke-width:0.8000000000000002;" x1="22.8" x2="30.8" y1="193.6609" y2="196.8609"/><line style="stroke:#181818;stroke-width:0.8000000000000002;" x1="22" x2="193.2" y1="193.6609" y2="193.6609"/><text fill="#000000" font-family="sans-serif" font-size="10.4" lengthAdjust="spacing" textLength="98.4" x="35.6" y="189.4508">Enter number of rows</text><line style="stroke:#181818;stroke-width:0.8000000000000002;" x1="192.4" x2="184.4" y1="218.6938" y2="215.4938"/><line style="stroke:#181818;stroke-width:0.8000000000000002;" x1="192.4" x2="184.4" y1="218.6938" y2="221.8938"/><line style="stroke:#181818;stroke-width:0.8000000000000002;" x1="22" x2="193.2" y1="218.6938" y2="218.6938"/><text fill="#000000" font-family="sans-serif" font-size="10.4" lengthAdjust="spacing" textLength="107.2" x="27.6" y="214.4836">Provide number of rows</text><line style="stroke:#181818;stroke-width:0.8000000000000002;" x1="22.8" x2="30.8" y1="243.7266" y2="240.5266"/><line style="stroke:#181818;stroke-width:0.8000000000000002;" x1="22.8" x2="30.8" y1="243.7266" y2="246.9266"/><line style="stroke:#181818;stroke-width:0.8000000000000002;" x1="22" x2="193.2" y1="243.7266" y2="243.7266"/><text fill="#000000" font-family="sans-serif" font-size="10.4" lengthAdjust="spacing" textLength="116" x="35.6" y="239.5164">Enter number of columns</text><line style="stroke:#181818;stroke-width:0.8000000000000002;" x1="192.4" x2="184.4" y1="268.7594" y2="265.5594"/><line style="stroke:#181818;stroke-width:0.8000000000000002;" x1="192.4" x2="184.4" y1="268.7594" y2="271.9594"/><line style="stroke:#181818;stroke-width:0.8000000000000002;" x1="22" x2="193.2" y1="268.7594" y2="268.7594"/><text fill="#000000" font-family="sans-serif" font-size="10.4" lengthAdjust="spacing" textLength="124.8" x="27.6" y="264.5492">Provide number of columns</text><line style="stroke:#181818;stroke-width:0.8000000000000002;" x1="278.8" x2="270.8" y1="293.7922" y2="290.5922"/><line style="stroke:#181818;stroke-width:0.8000000000000002;" x1="278.8" x2="270.8" y1="293.7922" y2="296.9922"/><line style="stroke:#181818;stroke-width:0.8000000000000002;" x1="202" x2="279.6" y1="293.7922" y2="293.7922"/><text fill="#000000" font-family="sans-serif" font-size="10.4" lengthAdjust="spacing" textLength="50.4" x="207.6" y="289.582">Board(title)</text><path d="M139.2,305.7922 L197.6,305.7922 L197.6,313.225 L189.6,321.225 L139.2,321.225 L139.2,305.7922 " fill="#EEEEEE" style="stroke:#000000;stroke-width:1.2000000000000002;"/><rect fill="none" height="142.1969" style="stroke:#000000;stroke-width:1.2000000000000002;" width="280.4" x="139.2" y="305.7922"/><text fill="#000000" font-family="sans-serif" font-size="10.4" font-weight="bold" lengthAdjust="spacing" textLength="22.4" x="151.2" y="317.8148">loop</text><text fill="#000000" font-family="sans-serif" font-size="8.8" font-weight="bold" lengthAdjust="spacing" textLength="64" x="209.6" y="316.8883">[For each row]</text><line style="stroke:#181818;stroke-width:0.8000000000000002;" x1="278.8" x2="270.8" y1="339.8578" y2="336.6578"/><line style="stroke:#181818;stroke-width:0.8000000000000002;" x1="278.8" x2="270.8" y1="339.8578" y2="343.0578"/><line style="stroke:#181818;stroke-width:0.8000000000000002;" x1="202" x2="279.6" y1="339.8578" y2="339.8578"/><text fill="#000000" font-family="sans-serif" font-size="10.4" lengthAdjust="spacing" textLength="59.2" x="207.6" y="335.6477">addRow(row)</text><line style="stroke:#181818;stroke-width:0.8000000000000002;" x1="324" x2="316" y1="364.8906" y2="361.6906"/><line style="stroke:#181818;stroke-width:0.8000000000000002;" x1="324" x2="316" y1="364.8906" y2="368.0906"/><line style="stroke:#181818;stroke-width:0.8000000000000002;" x1="202" x2="324.8" y1="364.8906" y2="364.8906"/><text fill="#000000" font-family="sans-serif" font-size="10.4" lengthAdjust="spacing" textLength="61.6" x="207.6" y="360.6805">Row(rowTitle)</text><path d="M147.2,376.8906 L205.6,376.8906 L205.6,384.3234 L197.6,392.3234 L147.2,392.3234 L147.2,376.8906 " fill="#EEEEEE" style="stroke:#000000;stroke-width:1.2000000000000002;"/><rect fill="none" height="65.4984" style="stroke:#000000;stroke-width:1.2000000000000002;" width="264.4" x="147.2" y="376.8906"/><text fill="#000000" font-family="sans-serif" font-size="10.4" font-weight="bold" lengthAdjust="spacing" textLength="22.4" x="159.2" y="388.9133">loop</text><text fill="#000000" font-family="sans-serif" font-size="8.8" font-weight="bold" lengthAdjust="spacing" textLength="79.2" x="217.6" y="387.9867">[For each column]</text><line style="stroke:#181818;stroke-width:0.8000000000000002;" x1="324" x2="316" y1="410.9563" y2="407.7563"/><line style="stroke:#181818;stroke-width:0.8000000000000002;" x1="324" x2="316" y1="410.9563" y2="414.1563"/><line style="stroke:#181818;stroke-width:0.8000000000000002;" x1="202" x2="324.8" y1="410.9563" y2="410.9563"/><text fill="#000000" font-family="sans-serif" font-size="10.4" lengthAdjust="spacing" textLength="92" x="207.6" y="406.7461">addColumn(column)</text><line style="stroke:#181818;stroke-width:0.8000000000000002;" x1="377.2" x2="369.2" y1="435.9891" y2="432.7891"/><line style="stroke:#181818;stroke-width:0.8000000000000002;" x1="377.2" x2="369.2" y1="435.9891" y2="439.1891"/><line style="stroke:#181818;stroke-width:0.8000000000000002;" x1="202" x2="378" y1="435.9891" y2="435.9891"/><text fill="#000000" font-family="sans-serif" font-size="10.4" lengthAdjust="spacing" textLength="94.4" x="207.6" y="431.7789">Column(columnTitle)</text><line style="stroke:#181818;stroke-width:0.8000000000000002;" x1="22.8" x2="30.8" y1="472.2219" y2="469.0219"/><line style="stroke:#181818;stroke-width:0.8000000000000002;" x1="22.8" x2="30.8" y1="472.2219" y2="475.4219"/><line style="stroke:#181818;stroke-width:0.8000000000000002;" x1="22" x2="197.2" y1="472.2219" y2="472.2219"/><text fill="#000000" font-family="sans-serif" font-size="10.4" lengthAdjust="spacing" textLength="103.2" x="35.6" y="468.0117">Display board scheme</text><!--SRC=[bLHBReCm4DrpYbd2eXVm8bA_4hig2WTmxAbY2J0o9cbltp5EmC7Wfcomv_FcFS_O0FHnORM1gaUJkIrqt5WbLCTR2wy6kSKNpOry5bRfDXbIbR5xTCJclRwiGEbwQDhCEuYMEXDomCoju6ctYsanm6yKWyMyM6HlA8ZCIzogP23cxGrNub_8QtuwcAXiLL95fuZ1Usj9sD5PmIfRuxPSH-lJwBEI68QcSDkXET9FVu7Hb_unwBMSnsg8iOV_BdENjgmqhfWVfNnKlUnoC6MrrXryq4HJfqwElZSdSBcKD8uvXHPpx0IzJo6Gay4r-H0GYubuWRDt4utO-7kG-vGYdUDZ6TpbBAbWA-TDCCAJjYaWS0PdkjxwDzLtDV-v3culJjXWwfRSdeVa7SgoNm00]--></g></svg>