<?xml version="1.0" encoding="us-ascii" standalone="no"?><svg xmlns="http://www.w3.org/2000/svg" xmlns:xlink="http://www.w3.org/1999/xlink" contentStyleType="text/css" height="346px" preserveAspectRatio="none" style="width:255px;height:346px;background:#FFFFFF;" version="1.1" viewBox="0 0 255 346" width="255px" zoomAndPan="magnify"><defs/><g><line style="stroke:#181818;stroke-width:0.5;stroke-dasharray:5.0,5.0;" x1="26" x2="26" y1="38.6211" y2="308.9492"/><line style="stroke:#181818;stroke-width:0.5;stroke-dasharray:5.0,5.0;" x1="219.5" x2="219.5" y1="38.6211" y2="308.9492"/><rect fill="#E2E2F0" height="32.6211" rx="2.5" ry="2.5" style="stroke:#181818;stroke-width:0.5;" width="43" x="5" y="5"/><text fill="#000000" font-family="sans-serif" font-size="14" lengthAdjust="spacing" textLength="29" x="12" y="27.1074">User</text><rect fill="#E2E2F0" height="32.6211" rx="2.5" ry="2.5" style="stroke:#181818;stroke-width:0.5;" width="43" x="5" y="307.9492"/><text fill="#000000" font-family="sans-serif" font-size="14" lengthAdjust="spacing" textLength="29" x="12" y="330.0566">User</text><rect fill="#E2E2F0" height="32.6211" rx="2.5" ry="2.5" style="stroke:#181818;stroke-width:0.5;" width="60" x="189.5" y="5"/><text fill="#000000" font-family="sans-serif" font-size="14" lengthAdjust="spacing" textLength="46" x="196.5" y="27.1074">System</text><rect fill="#E2E2F0" height="32.6211" rx="2.5" ry="2.5" style="stroke:#181818;stroke-width:0.5;" width="60" x="189.5" y="307.9492"/><text fill="#000000" font-family="sans-serif" font-size="14" lengthAdjust="spacing" textLength="46" x="196.5" y="330.0566">System</text><line style="stroke:#181818;stroke-width:1.0;" x1="217.5" x2="207.5" y1="71.9121" y2="67.9121"/><line style="stroke:#181818;stroke-width:1.0;" x1="217.5" x2="207.5" y1="71.9121" y2="75.9121"/><line style="stroke:#181818;stroke-width:1.0;" x1="26.5" x2="218.5" y1="71.9121" y2="71.9121"/><text fill="#000000" font-family="sans-serif" font-size="13" lengthAdjust="spacing" textLength="132" x="33.5" y="66.6494">Asks to create a board</text><line style="stroke:#181818;stroke-width:1.0;" x1="27.5" x2="37.5" y1="103.2031" y2="99.2031"/><line style="stroke:#181818;stroke-width:1.0;" x1="27.5" x2="37.5" y1="103.2031" y2="107.2031"/><line style="stroke:#181818;stroke-width:1.0;" x1="26.5" x2="218.5" y1="103.2031" y2="103.2031"/><text fill="#000000" font-family="sans-serif" font-size="13" lengthAdjust="spacing" textLength="127" x="43.5" y="97.9404">Requests a board title</text><line style="stroke:#181818;stroke-width:1.0;" x1="217.5" x2="207.5" y1="134.4941" y2="130.4941"/><line style="stroke:#181818;stroke-width:1.0;" x1="217.5" x2="207.5" y1="134.4941" y2="138.4941"/><line style="stroke:#181818;stroke-width:1.0;" x1="26.5" x2="218.5" y1="134.4941" y2="134.4941"/><text fill="#000000" font-family="sans-serif" font-size="13" lengthAdjust="spacing" textLength="64" x="33.5" y="129.2314">Inserts title</text><line style="stroke:#181818;stroke-width:1.0;" x1="27.5" x2="37.5" y1="165.7852" y2="161.7852"/><line style="stroke:#181818;stroke-width:1.0;" x1="27.5" x2="37.5" y1="165.7852" y2="169.7852"/><line style="stroke:#181818;stroke-width:1.0;" x1="26.5" x2="218.5" y1="165.7852" y2="165.7852"/><text fill="#000000" font-family="sans-serif" font-size="13" lengthAdjust="spacing" textLength="147" x="43.5" y="160.5225">Requests number of rows</text><line style="stroke:#181818;stroke-width:1.0;" x1="217.5" x2="207.5" y1="197.0762" y2="193.0762"/><line style="stroke:#181818;stroke-width:1.0;" x1="217.5" x2="207.5" y1="197.0762" y2="201.0762"/><line style="stroke:#181818;stroke-width:1.0;" x1="26.5" x2="218.5" y1="197.0762" y2="197.0762"/><text fill="#000000" font-family="sans-serif" font-size="13" lengthAdjust="spacing" textLength="131" x="33.5" y="191.8135">Inserts number of rows</text><line style="stroke:#181818;stroke-width:1.0;" x1="27.5" x2="37.5" y1="228.3672" y2="224.3672"/><line style="stroke:#181818;stroke-width:1.0;" x1="27.5" x2="37.5" y1="228.3672" y2="232.3672"/><line style="stroke:#181818;stroke-width:1.0;" x1="26.5" x2="218.5" y1="228.3672" y2="228.3672"/><text fill="#000000" font-family="sans-serif" font-size="13" lengthAdjust="spacing" textLength="169" x="43.5" y="223.1045">Requests number of columns</text><line style="stroke:#181818;stroke-width:1.0;" x1="217.5" x2="207.5" y1="259.6582" y2="255.6582"/><line style="stroke:#181818;stroke-width:1.0;" x1="217.5" x2="207.5" y1="259.6582" y2="263.6582"/><line style="stroke:#181818;stroke-width:1.0;" x1="26.5" x2="218.5" y1="259.6582" y2="259.6582"/><text fill="#000000" font-family="sans-serif" font-size="13" lengthAdjust="spacing" textLength="153" x="33.5" y="254.3955">Inserts number of columns</text><line style="stroke:#181818;stroke-width:1.0;" x1="27.5" x2="37.5" y1="290.9492" y2="286.9492"/><line style="stroke:#181818;stroke-width:1.0;" x1="27.5" x2="37.5" y1="290.9492" y2="294.9492"/><line style="stroke:#181818;stroke-width:1.0;" x1="26.5" x2="218.5" y1="290.9492" y2="290.9492"/><text fill="#000000" font-family="sans-serif" font-size="13" lengthAdjust="spacing" textLength="125" x="43.5" y="285.6865">Shows board scheme</text><!--SRC=[ZOzB3i8m34JtFSLSW0jqKOabMoeEa0QZHZH9YHqXRezJYa1L-MndtZpB032Q9CwwqGJ1WIbLM8JjZOLyYQkfAn0sJJCNDRPyPaY4JMI4OD15auuJ-q0KBgCQUxfaOk4d0t4oqBfr5pHHz8LyaeNiEnt74rAyydVR2ljRQ-EGVVZR_8ulv6slL-VVsVRawGu0]--></g></svg>