<?xml version="1.0" encoding="us-ascii" standalone="no"?><svg xmlns="http://www.w3.org/2000/svg" xmlns:xlink="http://www.w3.org/1999/xlink" contentStyleType="text/css" height="676px" preserveAspectRatio="none" style="width:3402px;height:676px;background:#FFFFFF;" version="1.1" viewBox="0 0 3402 676" width="3402px" zoomAndPan="magnify"><defs/><g><rect fill="#FFFFFF" height="461.3652" style="stroke:#181818;stroke-width:1.0;" width="10" x="31" y="98.2422"/><rect fill="#FFFFFF" height="187.7461" style="stroke:#181818;stroke-width:1.0;" width="10" x="316" y="121.5332"/><rect fill="#FFFFFF" height="228.0371" style="stroke:#181818;stroke-width:1.0;" width="10" x="316" y="340.5703"/><rect fill="#FFFFFF" height="93.873" style="stroke:#181818;stroke-width:1.0;" width="10" x="528" y="184.1152"/><rect fill="#FFFFFF" height="187.7461" style="stroke:#181818;stroke-width:1.0;" width="10" x="528" y="371.8613"/><rect fill="#FFFFFF" height="31.291" style="stroke:#181818;stroke-width:1.0;" width="10" x="835" y="403.1523"/><rect fill="#FFFFFF" height="31.291" style="stroke:#181818;stroke-width:1.0;" width="10" x="2063" y="434.4434"/><rect fill="#FFFFFF" height="62.582" style="stroke:#181818;stroke-width:1.0;" width="10" x="3061" y="215.4063"/><rect fill="#FFFFFF" height="31.291" style="stroke:#181818;stroke-width:1.0;" width="10" x="3199" y="465.7344"/><rect fill="#FFFFFF" height="31.291" style="stroke:#181818;stroke-width:1.0;" width="10" x="3332.5" y="246.6973"/><line style="stroke:#181818;stroke-width:0.5;stroke-dasharray:5.0,5.0;" x1="36" x2="36" y1="88.2422" y2="577.6074"/><line style="stroke:#181818;stroke-width:0.5;stroke-dasharray:5.0,5.0;" x1="320.5" x2="320.5" y1="88.2422" y2="577.6074"/><line style="stroke:#181818;stroke-width:0.5;stroke-dasharray:5.0,5.0;" x1="532.5" x2="532.5" y1="88.2422" y2="577.6074"/><line style="stroke:#181818;stroke-width:0.5;stroke-dasharray:5.0,5.0;" x1="840" x2="840" y1="88.2422" y2="577.6074"/><line style="stroke:#181818;stroke-width:0.5;stroke-dasharray:5.0,5.0;" x1="2068" x2="2068" y1="88.2422" y2="577.6074"/><line style="stroke:#181818;stroke-width:0.5;stroke-dasharray:5.0,5.0;" x1="2950" x2="2950" y1="88.2422" y2="577.6074"/><line style="stroke:#181818;stroke-width:0.5;stroke-dasharray:5.0,5.0;" x1="3066" x2="3066" y1="88.2422" y2="577.6074"/><line style="stroke:#181818;stroke-width:0.5;stroke-dasharray:5.0,5.0;" x1="3204" x2="3204" y1="88.2422" y2="577.6074"/><line style="stroke:#181818;stroke-width:0.5;stroke-dasharray:5.0,5.0;" x1="3337" x2="3337" y1="88.2422" y2="577.6074"/><text fill="#000000" font-family="sans-serif" font-size="14" lengthAdjust="spacing" textLength="56" x="5" y="84.7285">Manager</text><ellipse cx="36" cy="18.1211" fill="#E2E2F0" rx="8" ry="8" style="stroke:#181818;stroke-width:0.5;"/><path d="M36,26.1211 L36,53.1211 M23,34.1211 L49,34.1211 M36,53.1211 L23,68.1211 M36,53.1211 L49,68.1211 " fill="none" style="stroke:#181818;stroke-width:0.5;"/><text fill="#000000" font-family="sans-serif" font-size="14" lengthAdjust="spacing" textLength="56" x="5" y="591.7148">Manager</text><ellipse cx="36" cy="603.7285" fill="#E2E2F0" rx="8" ry="8" style="stroke:#181818;stroke-width:0.5;"/><path d="M36,611.7285 L36,638.7285 M23,619.7285 L49,619.7285 M36,638.7285 L23,653.7285 M36,638.7285 L49,653.7285 " fill="none" style="stroke:#181818;stroke-width:0.5;"/><rect fill="#E2E2F0" height="51.2422" rx="2.5" ry="2.5" style="stroke:#181818;stroke-width:0.5;" width="125" x="258.5" y="36"/><text fill="#000000" font-family="sans-serif" font-size="14" font-style="italic" lengthAdjust="spacing" textLength="95" x="273.5" y="58.1074">&#171;presentation&#187;</text><text fill="#000000" font-family="sans-serif" font-size="14" lengthAdjust="spacing" textLength="111" x="265.5" y="76.7285">RegisterCourseUI</text><rect fill="#E2E2F0" height="51.2422" rx="2.5" ry="2.5" style="stroke:#181818;stroke-width:0.5;" width="125" x="258.5" y="576.6074"/><text fill="#000000" font-family="sans-serif" font-size="14" font-style="italic" lengthAdjust="spacing" textLength="95" x="273.5" y="598.7148">&#171;presentation&#187;</text><text fill="#000000" font-family="sans-serif" font-size="14" lengthAdjust="spacing" textLength="111" x="265.5" y="617.3359">RegisterCourseUI</text><rect fill="#E2E2F0" height="51.2422" rx="2.5" ry="2.5" style="stroke:#181818;stroke-width:0.5;" width="175" x="445.5" y="36"/><text fill="#000000" font-family="sans-serif" font-size="14" font-style="italic" lengthAdjust="spacing" textLength="84" x="491" y="58.1074">&#171;application&#187;</text><text fill="#000000" font-family="sans-serif" font-size="14" lengthAdjust="spacing" textLength="161" x="452.5" y="76.7285">RegisterCourseController</text><rect fill="#E2E2F0" height="51.2422" rx="2.5" ry="2.5" style="stroke:#181818;stroke-width:0.5;" width="175" x="445.5" y="576.6074"/><text fill="#000000" font-family="sans-serif" font-size="14" font-style="italic" lengthAdjust="spacing" textLength="84" x="491" y="598.7148">&#171;application&#187;</text><text fill="#000000" font-family="sans-serif" font-size="14" lengthAdjust="spacing" textLength="161" x="452.5" y="617.3359">RegisterCourseController</text><rect fill="#E2E2F0" height="32.6211" rx="2.5" ry="2.5" style="stroke:#181818;stroke-width:0.5;" width="102" x="789" y="54.6211"/><text fill="#000000" font-family="sans-serif" font-size="14" lengthAdjust="spacing" textLength="88" x="796" y="76.7285">CourseParser</text><rect fill="#E2E2F0" height="32.6211" rx="2.5" ry="2.5" style="stroke:#181818;stroke-width:0.5;" width="102" x="789" y="576.6074"/><text fill="#000000" font-family="sans-serif" font-size="14" lengthAdjust="spacing" textLength="88" x="796" y="598.7148">CourseParser</text><rect fill="#E2E2F0" height="51.2422" rx="2.5" ry="2.5" style="stroke:#181818;stroke-width:0.5;" width="104" x="2016" y="36"/><text fill="#000000" font-family="sans-serif" font-size="14" font-style="italic" lengthAdjust="spacing" textLength="62" x="2037" y="58.1074">&#171;domain&#187;</text><text fill="#000000" font-family="sans-serif" font-size="14" lengthAdjust="spacing" textLength="90" x="2023" y="76.7285">CourseBuilder</text><rect fill="#E2E2F0" height="51.2422" rx="2.5" ry="2.5" style="stroke:#181818;stroke-width:0.5;" width="104" x="2016" y="576.6074"/><text fill="#000000" font-family="sans-serif" font-size="14" font-style="italic" lengthAdjust="spacing" textLength="62" x="2037" y="598.7148">&#171;domain&#187;</text><text fill="#000000" font-family="sans-serif" font-size="14" lengthAdjust="spacing" textLength="90" x="2023" y="617.3359">CourseBuilder</text><rect fill="#E2E2F0" height="51.2422" rx="2.5" ry="2.5" style="stroke:#181818;stroke-width:0.5;" width="76" x="2912" y="36"/><text fill="#000000" font-family="sans-serif" font-size="14" font-style="italic" lengthAdjust="spacing" textLength="62" x="2919" y="58.1074">&#171;domain&#187;</text><text fill="#000000" font-family="sans-serif" font-size="14" lengthAdjust="spacing" textLength="46" x="2927" y="76.7285">Course</text><rect fill="#E2E2F0" height="51.2422" rx="2.5" ry="2.5" style="stroke:#181818;stroke-width:0.5;" width="76" x="2912" y="576.6074"/><text fill="#000000" font-family="sans-serif" font-size="14" font-style="italic" lengthAdjust="spacing" textLength="62" x="2919" y="598.7148">&#171;domain&#187;</text><text fill="#000000" font-family="sans-serif" font-size="14" lengthAdjust="spacing" textLength="46" x="2927" y="617.3359">Course</text><rect fill="#E2E2F0" height="51.2422" rx="2.5" ry="2.5" style="stroke:#181818;stroke-width:0.5;" width="136" x="2998" y="36"/><text fill="#000000" font-family="sans-serif" font-size="14" font-style="italic" lengthAdjust="spacing" textLength="60" x="3036" y="58.1074">&#171;service&#187;</text><text fill="#000000" font-family="sans-serif" font-size="14" lengthAdjust="spacing" textLength="122" x="3005" y="76.7285">ListTeacherService</text><rect fill="#E2E2F0" height="51.2422" rx="2.5" ry="2.5" style="stroke:#181818;stroke-width:0.5;" width="136" x="2998" y="576.6074"/><text fill="#000000" font-family="sans-serif" font-size="14" font-style="italic" lengthAdjust="spacing" textLength="60" x="3036" y="598.7148">&#171;service&#187;</text><text fill="#000000" font-family="sans-serif" font-size="14" lengthAdjust="spacing" textLength="122" x="3005" y="617.3359">ListTeacherService</text><text fill="#000000" font-family="sans-serif" font-size="14" font-style="italic" lengthAdjust="spacing" textLength="79" x="3161.5" y="66.1074">&#171;repository&#187;</text><text fill="#000000" font-family="sans-serif" font-size="14" lengthAdjust="spacing" textLength="114" x="3144" y="84.7285">CourseRepository</text><path d="M3186,15 C3186,5 3204,5 3204,5 C3204,5 3222,5 3222,15 L3222,41 C3222,51 3204,51 3204,51 C3204,51 3186,51 3186,41 L3186,15 " fill="#E2E2F0" style="stroke:#181818;stroke-width:1.5;"/><path d="M3186,15 C3186,25 3204,25 3204,25 C3204,25 3222,25 3222,15 " fill="none" style="stroke:#181818;stroke-width:1.5;"/><text fill="#000000" font-family="sans-serif" font-size="14" font-style="italic" lengthAdjust="spacing" textLength="79" x="3161.5" y="591.7148">&#171;repository&#187;</text><text fill="#000000" font-family="sans-serif" font-size="14" lengthAdjust="spacing" textLength="114" x="3144" y="610.3359">CourseRepository</text><path d="M3186,623.8496 C3186,613.8496 3204,613.8496 3204,613.8496 C3204,613.8496 3222,613.8496 3222,623.8496 L3222,649.8496 C3222,659.8496 3204,659.8496 3204,659.8496 C3204,659.8496 3186,659.8496 3186,649.8496 L3186,623.8496 " fill="#E2E2F0" style="stroke:#181818;stroke-width:1.5;"/><path d="M3186,623.8496 C3186,633.8496 3204,633.8496 3204,633.8496 C3204,633.8496 3222,633.8496 3222,623.8496 " fill="none" style="stroke:#181818;stroke-width:1.5;"/><text fill="#000000" font-family="sans-serif" font-size="14" font-style="italic" lengthAdjust="spacing" textLength="79" x="3295" y="66.1074">&#171;repository&#187;</text><text fill="#000000" font-family="sans-serif" font-size="14" lengthAdjust="spacing" textLength="121" x="3274" y="84.7285">TeacherRepository</text><path d="M3319.5,15 C3319.5,5 3337.5,5 3337.5,5 C3337.5,5 3355.5,5 3355.5,15 L3355.5,41 C3355.5,51 3337.5,51 3337.5,51 C3337.5,51 3319.5,51 3319.5,41 L3319.5,15 " fill="#E2E2F0" style="stroke:#181818;stroke-width:1.5;"/><path d="M3319.5,15 C3319.5,25 3337.5,25 3337.5,25 C3337.5,25 3355.5,25 3355.5,15 " fill="none" style="stroke:#181818;stroke-width:1.5;"/><text fill="#000000" font-family="sans-serif" font-size="14" font-style="italic" lengthAdjust="spacing" textLength="79" x="3295" y="591.7148">&#171;repository&#187;</text><text fill="#000000" font-family="sans-serif" font-size="14" lengthAdjust="spacing" textLength="121" x="3274" y="610.3359">TeacherRepository</text><path d="M3319.5,623.8496 C3319.5,613.8496 3337.5,613.8496 3337.5,613.8496 C3337.5,613.8496 3355.5,613.8496 3355.5,623.8496 L3355.5,649.8496 C3355.5,659.8496 3337.5,659.8496 3337.5,659.8496 C3337.5,659.8496 3319.5,659.8496 3319.5,649.8496 L3319.5,623.8496 " fill="#E2E2F0" style="stroke:#181818;stroke-width:1.5;"/><path d="M3319.5,623.8496 C3319.5,633.8496 3337.5,633.8496 3337.5,633.8496 C3337.5,633.8496 3355.5,633.8496 3355.5,623.8496 " fill="none" style="stroke:#181818;stroke-width:1.5;"/><rect fill="#FFFFFF" height="461.3652" style="stroke:#181818;stroke-width:1.0;" width="10" x="31" y="98.2422"/><rect fill="#FFFFFF" height="187.7461" style="stroke:#181818;stroke-width:1.0;" width="10" x="316" y="121.5332"/><rect fill="#FFFFFF" height="228.0371" style="stroke:#181818;stroke-width:1.0;" width="10" x="316" y="340.5703"/><rect fill="#FFFFFF" height="93.873" style="stroke:#181818;stroke-width:1.0;" width="10" x="528" y="184.1152"/><rect fill="#FFFFFF" height="187.7461" style="stroke:#181818;stroke-width:1.0;" width="10" x="528" y="371.8613"/><rect fill="#FFFFFF" height="31.291" style="stroke:#181818;stroke-width:1.0;" width="10" x="835" y="403.1523"/><rect fill="#FFFFFF" height="31.291" style="stroke:#181818;stroke-width:1.0;" width="10" x="2063" y="434.4434"/><rect fill="#FFFFFF" height="62.582" style="stroke:#181818;stroke-width:1.0;" width="10" x="3061" y="215.4063"/><rect fill="#FFFFFF" height="31.291" style="stroke:#181818;stroke-width:1.0;" width="10" x="3199" y="465.7344"/><rect fill="#FFFFFF" height="31.291" style="stroke:#181818;stroke-width:1.0;" width="10" x="3332.5" y="246.6973"/><polygon fill="#181818" points="304,117.5332,314,121.5332,304,125.5332,308,121.5332" style="stroke:#181818;stroke-width:1.0;"/><line style="stroke:#181818;stroke-width:1.0;" x1="41" x2="310" y1="121.5332" y2="121.5332"/><text fill="#000000" font-family="sans-serif" font-size="13" lengthAdjust="spacing" textLength="185" x="48" y="116.2705">Enters course registration menu</text><polygon fill="#181818" points="52,148.8242,42,152.8242,52,156.8242,48,152.8242" style="stroke:#181818;stroke-width:1.0;"/><line style="stroke:#181818;stroke-width:1.0;" x1="46" x2="315" y1="152.8242" y2="152.8242"/><text fill="#000000" font-family="sans-serif" font-size="13" lengthAdjust="spacing" textLength="251" x="58" y="147.5615">Requests new course's required information</text><polygon fill="#181818" points="516,180.1152,526,184.1152,516,188.1152,520,184.1152" style="stroke:#181818;stroke-width:1.0;"/><line style="stroke:#181818;stroke-width:1.0;" x1="326" x2="522" y1="184.1152" y2="184.1152"/><text fill="#000000" font-family="sans-serif" font-size="13" lengthAdjust="spacing" textLength="51" x="333" y="178.8525">teacher()</text><polygon fill="#181818" points="3049,211.4063,3059,215.4063,3049,219.4063,3053,215.4063" style="stroke:#181818;stroke-width:1.0;"/><line style="stroke:#181818;stroke-width:1.0;" x1="538" x2="3055" y1="215.4063" y2="215.4063"/><text fill="#000000" font-family="sans-serif" font-size="13" lengthAdjust="spacing" textLength="58" x="545" y="210.1436">teachers()</text><polygon fill="#181818" points="3320.5,242.6973,3330.5,246.6973,3320.5,250.6973,3324.5,246.6973" style="stroke:#181818;stroke-width:1.0;"/><line style="stroke:#181818;stroke-width:1.0;" x1="3071" x2="3326.5" y1="246.6973" y2="246.6973"/><text fill="#000000" font-family="sans-serif" font-size="13" lengthAdjust="spacing" textLength="43" x="3078" y="241.4346">findAll()</text><polygon fill="#181818" points="337,273.9883,327,277.9883,337,281.9883,333,277.9883" style="stroke:#181818;stroke-width:1.0;"/><line style="stroke:#181818;stroke-width:1.0;" x1="331" x2="532" y1="277.9883" y2="277.9883"/><text fill="#000000" font-family="sans-serif" font-size="13" lengthAdjust="spacing" textLength="83" x="343" y="272.7256">List&lt;Teacher&gt;</text><polygon fill="#181818" points="52,305.2793,42,309.2793,52,313.2793,48,309.2793" style="stroke:#181818;stroke-width:1.0;"/><line style="stroke:#181818;stroke-width:1.0;" x1="46" x2="320" y1="309.2793" y2="309.2793"/><text fill="#000000" font-family="sans-serif" font-size="13" lengthAdjust="spacing" textLength="75" x="58" y="304.0166">ListTeacher()</text><polygon fill="#181818" points="304,336.5703,314,340.5703,304,344.5703,308,340.5703" style="stroke:#181818;stroke-width:1.0;"/><line style="stroke:#181818;stroke-width:1.0;" x1="41" x2="310" y1="340.5703" y2="340.5703"/><text fill="#000000" font-family="sans-serif" font-size="13" lengthAdjust="spacing" textLength="147" x="48" y="335.3076">Provides the course's info</text><polygon fill="#181818" points="516,367.8613,526,371.8613,516,375.8613,520,371.8613" style="stroke:#181818;stroke-width:1.0;"/><line style="stroke:#181818;stroke-width:1.0;" x1="326" x2="522" y1="371.8613" y2="371.8613"/><text fill="#000000" font-family="sans-serif" font-size="13" lengthAdjust="spacing" textLength="176" x="333" y="366.5986">registerNewCourse(courseInfo)</text><polygon fill="#181818" points="823,399.1523,833,403.1523,823,407.1523,827,403.1523" style="stroke:#181818;stroke-width:1.0;"/><line style="stroke:#181818;stroke-width:1.0;" x1="538" x2="829" y1="403.1523" y2="403.1523"/><text fill="#000000" font-family="sans-serif" font-size="13" lengthAdjust="spacing" textLength="278" x="545" y="397.8896">newCourse = new CourseDTOParser().valueOf();</text><polygon fill="#181818" points="2051,430.4434,2061,434.4434,2051,438.4434,2055,434.4434" style="stroke:#181818;stroke-width:1.0;"/><line style="stroke:#181818;stroke-width:1.0;" x1="840" x2="2057" y1="434.4434" y2="434.4434"/><text fill="#000000" font-family="sans-serif" font-size="13" lengthAdjust="spacing" textLength="1199" x="847" y="429.1807">newCourse = new CourseBuilder().ofType(teacher).code(dto.code).title(dto.title).description(dto.description).capacity(new Capacity(dto.minCapacity, dto.maxCapacity)).status(Status.valueOf(dto.status)).build()</text><polygon fill="#181818" points="2938,461.7344,2948,465.7344,2938,469.7344,2942,465.7344" style="stroke:#181818;stroke-width:1.0;"/><line style="stroke:#181818;stroke-width:1.0;" x1="2068" x2="2944" y1="465.7344" y2="465.7344"/><text fill="#000000" font-family="sans-serif" font-size="13" lengthAdjust="spacing" textLength="853" x="2075" y="460.4717">newCourse = new Course(teacher, dto.code, dto.title, dto.description, new Capacity(dto.minCapacity, dto.maxCapacity), Status.valueOf(dto.status))</text><polygon fill="#181818" points="3192,493.0254,3202,497.0254,3192,501.0254,3196,497.0254" style="stroke:#181818;stroke-width:1.0;"/><line style="stroke:#181818;stroke-width:1.0;" x1="538" x2="3198" y1="497.0254" y2="497.0254"/><text fill="#000000" font-family="sans-serif" font-size="13" lengthAdjust="spacing" textLength="98" x="545" y="491.7627">save(newCourse)</text><polygon fill="#181818" points="337,524.3164,327,528.3164,337,532.3164,333,528.3164" style="stroke:#181818;stroke-width:1.0;"/><line style="stroke:#181818;stroke-width:1.0;" x1="331" x2="527" y1="528.3164" y2="528.3164"/><text fill="#000000" font-family="sans-serif" font-size="13" lengthAdjust="spacing" textLength="178" x="343" y="523.0537">Course registered successfully</text><polygon fill="#181818" points="47,555.6074,37,559.6074,47,563.6074,43,559.6074" style="stroke:#181818;stroke-width:1.0;"/><line style="stroke:#181818;stroke-width:1.0;" x1="41" x2="315" y1="559.6074" y2="559.6074"/><text fill="#000000" font-family="sans-serif" font-size="13" lengthAdjust="spacing" textLength="32" x="53" y="554.3447">menu</text><!--SRC=[bLJRRjim37ttL-YjDf0cxvvNeClsK61RYpRx05Pc4W6ovEgIBdy_Id8SEJTWBubedaEHXoBljixrjbuiUWdA-KxEkUuM5ZyyAexthO2DWQue7hdJXlq21Hiq32pheEZ1EC55JqJsYXjX7PgbziRYdwS0yOAnfkaDMbGEdD3guU46QQcLCrhA59yx8uaDVIy5lqHEf1UW7tF1ySqBsLAefcbr1-8o-vht9wMrGk1RD6zeTe87f4qdWhRWu1s8dgAyOg-j87tsJMF6SuuRObq55i2Ts87386i7xFuXY5Up7uhK8IrIiYRAPQ8Oh4FbCvuN1J68rq5DkbBxhBDCuUT0lhD4__32OCk4MclJnJ35m0fgryobDClg63SuYjWBGbsGPIHPOcNvd4EB2soAUIODXLmBrJvAcUTn1Yl6hBoeutNDW24vMxn1p9mNiioyiVQZgXcOCijmfFtOj9gz6BqJBLhcjdWKFsW-wTP4U3CCmc_yJ4-gJCGdOfqsOwmx7u0wj7fuqrzZsvFnVVMS06Krtu7q-BmkgozPdoPJb1l76uP9kdR5uAOBz7grxx4S7aH5cwJ5idKw7ggv4qucEvwgEOd4ZUZ3EuoVCvl8q0CNRb_6cmv6W7L27UmPYn_Wx-53LSqjhHfloxVuDnOTSCb3aFUGyhI74nrEvHbABAQRPHJecZ879LAMGOHqYkMdOrRoZFrVfJDseyJpqWurdDQM3SRqOHqTDREmmt8iiYhEmryRp6M-kZ1i7-ivHslNNihzE5qqz76XdKvVPdVm3m00]--></g></svg>